<?xml version="1.0" standalone="no"?>
<!DOCTYPE svg PUBLIC "-//W3C//DTD SVG 20010904//EN"
 "http://www.w3.org/TR/2001/REC-SVG-20010904/DTD/svg10.dtd">
<svg version="1.0" xmlns="http://www.w3.org/2000/svg"
 width="626.000000pt" height="626.000000pt" viewBox="0 0 626.000000 626.000000"
 preserveAspectRatio="xMidYMid meet">

<g transform="translate(0.000000,626.000000) scale(0.100000,-0.100000)"
fill="#000000" stroke="none">
<path d="M2980 5940 c-115 -22 -129 -27 -349 -124 -295 -131 -356 -164 -536
-299 -374 -280 -601 -540 -825 -947 -99 -180 -138 -272 -192 -455 -53 -178
-58 -208 -44 -289 l9 -50 -29 22 c-16 13 -61 45 -100 72 -102 70 -146 152
-124 231 19 67 63 84 106 42 13 -14 17 -14 25 -2 39 59 -98 180 -187 166 -92
-15 -163 -87 -171 -174 l-5 -48 -59 3 c-93 6 -99 -1 -45 -49 54 -48 73 -82
110 -198 56 -175 89 -211 251 -277 31 -12 -121 -23 -180 -13 -88 16 -139 72
-118 129 10 26 9 31 -8 40 -26 14 -74 -11 -94 -50 -21 -41 -18 -89 9 -136 13
-23 26 -57 30 -77 6 -33 62 -97 85 -97 4 0 13 -11 19 -24 18 -40 94 -78 167
-84 36 -2 65 -6 65 -8 0 -2 -12 -16 -26 -31 -54 -57 -70 -136 -34 -168 20 -18
21 -18 36 4 67 95 169 91 206 -10 5 -13 -3 -15 -51 -12 -40 3 -66 -1 -91 -14
-45 -23 -90 -89 -97 -141 -5 -34 -2 -44 20 -66 15 -14 38 -26 52 -26 30 0 31
4 5 30 -16 16 -18 25 -10 40 14 27 48 33 112 23 l53 -8 2 -60 c1 -33 6 -73 12
-88 14 -37 14 -37 -6 -37 -10 0 -42 -11 -70 -25 -53 -24 -93 -71 -93 -108 0
-32 28 -74 59 -86 38 -16 68 -1 87 45 13 32 17 34 60 34 53 0 88 -16 129 -60
l30 -32 -30 9 c-58 15 -128 8 -189 -20 -50 -23 -57 -29 -46 -42 7 -8 20 -15
30 -15 49 0 81 -23 105 -75 14 -28 25 -58 25 -65 0 -7 7 -21 15 -30 8 -8 15
-35 17 -60 3 -44 3 -44 -57 -80 -33 -20 -68 -50 -77 -66 -22 -35 -23 -83 -4
-110 14 -18 15 -18 36 9 33 42 71 57 145 57 l66 0 19 -46 c11 -25 20 -47 20
-49 0 -2 -14 1 -31 7 -40 14 -117 4 -176 -22 -85 -37 -111 -80 -50 -80 85 -2
149 -45 241 -165 65 -84 66 -86 50 -110 -23 -36 -13 -56 24 -46 33 10 91 -7
125 -36 12 -10 50 -46 83 -80 34 -35 69 -63 79 -63 15 0 17 -6 11 -41 -18
-114 75 -219 160 -180 30 13 31 29 2 33 -28 4 -33 21 -12 43 40 40 180 -12
266 -98 28 -29 89 -102 135 -164 218 -291 537 -495 843 -538 136 -19 122 -19
235 -5 316 40 645 245 868 543 106 140 174 209 240 242 67 32 135 42 161 22
24 -17 15 -47 -14 -47 -11 0 -20 -4 -20 -10 0 -15 35 -30 70 -30 67 0 130 104
115 191 -6 33 -4 39 11 39 9 0 47 31 83 69 87 90 122 111 189 111 57 0 68 16
36 51 -15 17 -14 21 15 56 16 21 50 63 74 93 54 69 117 109 185 117 55 6 64
19 34 46 -52 47 -183 79 -241 59 -17 -6 -31 -9 -31 -7 0 2 9 24 20 49 l19 46
60 0 c73 0 133 -22 151 -56 17 -31 26 -30 44 4 12 23 12 33 1 65 -17 51 -28
62 -97 99 -58 32 -59 34 -55 70 2 21 12 49 21 62 9 14 16 31 16 37 0 7 11 36
25 65 25 53 35 60 118 78 41 10 33 24 -30 53 -60 27 -123 34 -183 19 l-35 -8
30 32 c37 40 82 60 135 60 36 0 41 -3 54 -35 36 -86 146 -48 146 49 0 48 -68
104 -148 121 -26 5 -32 11 -26 23 12 29 22 105 17 134 -4 24 0 28 34 37 79 22
133 8 133 -35 0 -13 -7 -27 -15 -30 -24 -10 -17 -24 10 -24 14 0 37 12 52 26
22 22 25 32 20 66 -7 52 -52 118 -97 141 -25 13 -51 17 -91 14 -48 -3 -56 -1
-51 12 37 101 155 104 210 6 10 -19 11 -19 31 -1 13 11 21 31 21 49 0 39 -36
114 -61 128 -33 17 -21 26 44 31 75 6 142 38 165 79 9 16 25 32 34 35 25 7 78
72 78 93 0 11 11 43 25 73 29 61 31 85 10 134 -17 40 -68 68 -97 53 -14 -8
-16 -14 -8 -29 18 -33 11 -61 -23 -95 -41 -41 -106 -56 -210 -48 -84 6 -86 11
-17 37 110 42 159 103 206 256 35 115 56 152 109 197 25 20 45 40 45 44 0 11
-87 19 -119 9 -31 -9 -31 -8 -31 28 -1 79 -58 153 -139 181 -50 16 -71 14
-130 -15 -63 -32 -107 -90 -97 -129 6 -23 26 -36 26 -16 0 5 14 14 30 21 26
11 33 10 50 -5 28 -25 41 -82 31 -128 -14 -60 -54 -110 -128 -160 -37 -26 -81
-56 -97 -69 l-29 -22 9 50 c14 82 9 112 -45 294 -38 129 -69 211 -119 310
-213 426 -451 732 -773 990 -238 191 -340 254 -624 380 -212 95 -273 118 -364
136 -115 22 -214 24 -321 4z m313 -31 c74 -15 144 -40 290 -105 324 -145 383
-176 542 -294 410 -302 670 -609 890 -1055 80 -161 102 -217 146 -370 l52
-180 -12 -75 c-7 -41 -27 -151 -46 -245 -18 -93 -48 -244 -65 -335 -17 -91
-49 -248 -72 -350 l-42 -185 -90 -104 c-50 -57 -122 -141 -160 -185 -37 -45
-71 -83 -75 -86 -6 -5 -172 -191 -178 -199 -7 -11 -10 7 -6 36 5 33 49 84 292
341 69 74 130 141 135 149 6 12 10 13 16 3 22 -35 103 222 85 268 -3 8 1 39 9
70 8 32 42 208 76 392 71 388 87 471 96 479 6 6 -2 -54 -12 -87 -4 -12 -2 -11
8 3 20 31 15 149 -11 243 -30 106 -39 100 -11 -8 40 -157 13 -104 -59 114 -81
248 -118 331 -218 497 -181 301 -424 557 -753 794 -232 167 -405 269 -525 310
-157 53 -401 126 -438 131 -51 7 -71 2 -307 -71 -281 -86 -441 -171 -745 -396
-454 -334 -767 -741 -909 -1184 -73 -225 -99 -300 -103 -288 -2 6 5 48 17 93
28 108 19 114 -11 8 -26 -93 -32 -210 -11 -243 l13 -20 -5 20 c-2 11 -7 36
-10 55 -5 27 -4 30 3 14 5 -12 33 -147 61 -300 53 -292 114 -602 126 -643 5
-15 3 -22 -3 -18 -6 4 -7 -15 -1 -56 10 -62 42 -145 72 -182 l16 -20 -7 20
c-3 11 16 -5 42 -35 27 -30 69 -75 94 -100 38 -39 219 -235 274 -297 10 -11
22 -38 27 -60 l8 -38 -70 75 c-39 41 -136 151 -217 244 -80 92 -164 188 -185
213 -47 54 -69 133 -146 533 -27 140 -61 309 -74 375 -13 66 -32 168 -42 226
l-17 106 53 184 c45 153 69 213 142 359 210 420 442 709 788 980 230 180 295
217 653 376 276 123 405 145 610 103z m-216 -95 c2 -6 -15 -18 -37 -27 -44
-17 -51 -8 -19 24 21 21 50 23 56 3z m161 0 c12 -8 22 -21 22 -29 0 -12 -6
-11 -37 2 -46 18 -47 19 -38 32 9 15 27 14 53 -5z m-280 -77 c27 -25 29 -41 3
-27 -11 5 -33 7 -50 4 -38 -8 -56 21 -27 42 21 15 42 9 74 -19z m430 -6 c4
-22 1 -24 -34 -18 -20 3 -45 2 -55 -4 -25 -13 -24 0 3 28 30 32 81 29 86 -6z
m-270 -30 c2 -32 0 -42 -10 -39 -7 3 -14 15 -16 27 -4 27 -26 23 -30 -6 -2
-11 7 -47 19 -79 39 -106 33 -124 -10 -37 -61 121 -56 188 13 181 29 -3 31 -6
34 -47z m100 37 c24 -24 13 -90 -28 -173 -41 -82 -56 -75 -20 10 27 62 36 120
20 130 -15 9 -30 -13 -23 -32 3 -7 -2 -13 -11 -13 -12 0 -16 10 -16 39 0 22 5
42 13 44 22 10 53 7 65 -5z m-441 -43 c3 -10 -8 -29 -31 -51 -20 -19 -36 -40
-36 -47 0 -7 -5 -4 -11 6 -19 32 17 107 52 107 11 0 22 -7 26 -15z m776 -23
c13 -22 17 -41 12 -60 -7 -25 -8 -26 -19 -8 -6 11 -24 32 -40 47 -19 18 -27
33 -22 44 10 26 48 14 69 -23z m-608 4 c63 -27 84 -114 42 -177 -42 -63 -89
-49 -57 17 24 47 16 88 -18 96 -55 15 -101 -50 -126 -175 -28 -143 -77 -206
-161 -210 -25 -1 -35 -7 -35 -18 0 -9 -7 -22 -14 -29 -25 -20 -59 -7 -80 29
l-19 33 22 -11 c12 -7 34 -11 49 -9 l27 3 -32 19 c-30 18 -68 75 -57 85 2 2
15 -6 28 -18 34 -32 104 -39 140 -16 36 24 42 37 67 151 30 140 65 200 133
230 40 17 49 17 91 0z m490 -16 c45 -28 80 -99 104 -214 12 -54 26 -107 31
-117 29 -54 104 -64 165 -24 20 15 40 24 43 21 5 -6 -39 -76 -49 -76 -3 0 -14
-7 -25 -16 -18 -14 -16 -15 24 -11 23 3 42 1 42 -4 0 -16 -39 -49 -59 -49 -22
0 -45 25 -38 42 3 9 -8 13 -34 14 -51 2 -105 37 -128 83 -10 20 -27 74 -36
121 -22 108 -47 158 -88 175 -38 16 -56 10 -68 -23 -7 -19 -5 -35 11 -66 11
-23 16 -44 11 -49 -28 -28 -91 41 -91 100 0 102 93 150 185 93z m-790 -63 c40
-40 57 -94 44 -141 -14 -51 -34 -52 -34 -2 0 52 -33 100 -80 117 -33 12 -45
36 -28 52 18 18 67 5 98 -26z m1073 8 c2 -16 -6 -24 -33 -34 -49 -17 -89 -78
-83 -126 4 -35 4 -35 -15 -16 -39 38 -17 136 40 181 35 27 87 24 91 -5z
m-1249 -28 c15 -19 -9 -50 -32 -41 -17 6 -23 35 -10 47 10 11 30 8 42 -6z
m1375 -2 c5 -14 -18 -45 -34 -45 -13 0 -28 32 -23 48 6 17 50 15 57 -3z
m-1270 -56 c13 -6 32 -26 42 -44 15 -29 16 -39 5 -74 -8 -30 -17 -41 -31 -41
-15 0 -20 7 -20 29 0 44 -10 61 -34 61 -52 0 -102 -72 -155 -224 -18 -49 -41
-106 -53 -127 -23 -41 -82 -79 -122 -79 -27 0 -66 31 -66 52 0 9 3 9 12 0 17
-17 59 -15 86 4 31 21 47 57 72 155 56 221 160 335 264 288z m1242 -24 c59
-45 98 -130 154 -334 21 -78 99 -128 138 -89 9 9 12 9 12 0 0 -21 -39 -52 -66
-52 -77 0 -121 52 -175 205 -39 112 -60 153 -97 193 -50 53 -107 34 -87 -28 4
-13 1 -22 -9 -26 -38 -15 -67 55 -46 107 26 63 110 74 176 24z m-1436 14 c0
-6 -11 -24 -25 -41 l-25 -30 0 29 c0 31 16 53 37 53 7 0 13 -5 13 -11z m492
-1 c-14 -14 -16 -57 -3 -76 4 -8 32 -15 63 -17 62 -3 93 -16 108 -45 9 -16 6
-25 -15 -46 -25 -25 -51 -24 -41 1 6 17 -15 25 -69 25 -36 0 -48 5 -69 31 -35
42 -31 105 8 131 18 12 31 9 18 -4z m548 -8 c52 -52 1 -150 -78 -150 -51 0
-72 -8 -66 -25 10 -25 -16 -26 -41 -1 -21 21 -24 30 -15 46 15 29 48 43 101
44 25 1 54 7 63 15 19 16 21 62 4 79 -9 9 -9 12 0 12 7 0 21 -9 32 -20z m498
8 c7 -7 12 -25 12 -41 l0 -29 -25 30 c-14 17 -25 35 -25 41 0 15 23 14 38 -1z
m-824 -91 c12 -26 15 -42 8 -49 -7 -7 -12 -3 -17 11 -4 14 -18 24 -36 28 -34
6 -43 17 -35 39 4 10 16 14 33 12 21 -2 33 -13 47 -41z m151 19 c0 -14 -10
-22 -34 -28 -20 -6 -35 -17 -38 -28 -3 -11 -9 -18 -13 -15 -10 6 4 61 21 81
18 22 64 14 64 -10z m-965 -16 c21 -21 29 -90 10 -90 -5 0 -10 6 -10 14 0 8
-16 27 -37 43 -21 18 -33 34 -29 41 11 18 44 14 66 -8z m1766 8 c4 -7 -8 -23
-29 -41 -21 -16 -37 -35 -37 -43 0 -8 -4 -14 -10 -14 -19 0 -11 69 10 90 22
22 55 26 66 8z m-416 -84 c0 -8 -7 -14 -15 -14 -15 0 -21 21 -9 33 10 9 24 -2
24 -19z m-970 1 c0 -8 -7 -15 -15 -15 -8 0 -15 7 -15 15 0 8 7 15 15 15 8 0
15 -7 15 -15z m-550 -11 c0 -9 -5 -14 -12 -12 -18 6 -21 28 -4 28 9 0 16 -7
16 -16z m2068 4 c-6 -18 -28 -21 -28 -4 0 9 7 16 16 16 9 0 14 -5 12 -12z
m-1938 -18 c24 -24 26 -79 4 -121 -24 -47 -49 -35 -45 20 3 53 -12 52 -51 -5
-38 -57 -50 -104 -57 -239 -7 -133 -23 -175 -72 -196 -29 -11 -84 -5 -94 12
-4 5 9 9 28 9 19 0 45 9 58 19 23 18 24 26 29 183 6 151 8 167 33 220 49 101
122 143 167 98z m585 11 c7 -12 -12 -24 -25 -16 -11 7 -4 25 10 25 5 0 11 -4
15 -9z m640 0 c7 -12 -12 -24 -25 -16 -11 7 -4 25 10 25 5 0 11 -4 15 -9z
m662 -23 c18 -18 44 -58 60 -88 26 -52 28 -65 33 -218 5 -157 6 -165 29 -183
13 -10 37 -19 55 -19 29 -1 30 -1 12 -15 -38 -29 -92 -12 -121 38 -15 24 -21
62 -26 157 -8 133 -23 193 -65 247 -34 45 -46 42 -42 -9 3 -54 -23 -65 -46
-19 -54 103 34 189 111 109z m-1222 -8 c3 -5 1 -10 -4 -10 -6 0 -11 5 -11 10
0 6 2 10 4 10 3 0 8 -4 11 -10z m465 -6 c0 -8 -5 -12 -10 -9 -6 4 -8 11 -5 16
9 14 15 11 15 -7z m-125 -30 c122 -25 231 -62 330 -111 l89 -45 -28 -15 c-26
-14 -33 -13 -95 15 -63 29 -345 92 -410 92 -67 0 -349 -63 -410 -92 -61 -28
-67 -29 -95 -15 l-31 15 95 46 c52 26 131 58 175 72 98 30 253 63 280 58 11
-1 56 -10 100 -20z m-1217 -17 c2 -9 -6 -29 -17 -43 -12 -15 -21 -35 -21 -45
0 -11 -4 -19 -10 -19 -17 0 -12 92 7 112 19 21 37 19 41 -5z m2262 -59 c0 -26
-4 -48 -10 -48 -5 0 -10 8 -10 19 0 10 -9 30 -20 44 -23 29 -26 53 -7 60 25 9
47 -25 47 -75z m-1516 41 c-7 -11 -44 -12 -44 -1 0 4 5 13 12 20 13 13 42 -4
32 -19z m756 5 c0 -15 -10 -17 -34 -8 -13 5 -14 10 -6 20 14 15 40 8 40 -12z
m-1078 -99 c-14 -30 -39 -42 -54 -27 -7 7 -4 19 11 40 11 17 21 37 21 44 0 30
15 29 24 -1 6 -21 5 -40 -2 -56z m1378 58 c0 -8 10 -28 21 -45 16 -22 19 -32
10 -41 -28 -28 -70 36 -57 87 7 27 26 27 26 -1z m-1902 -27 c4 -21 -14 -37
-35 -29 -14 5 -18 35 -6 47 12 12 38 1 41 -18z m2450 0 c5 -24 -10 -38 -31
-30 -17 6 -23 35 -10 48 12 12 38 1 41 -18z m-2195 -47 c-17 -17 -37 -1 -22
17 8 10 15 12 23 4 7 -7 7 -13 -1 -21z m1917 -3 c-13 -13 -35 7 -25 24 5 8 11
8 21 -1 10 -8 12 -15 4 -23z m-2129 -35 c16 -16 29 -37 29 -46 0 -14 -4 -14
-26 4 -15 12 -37 21 -50 21 -23 0 -34 16 -26 38 7 21 42 13 73 -17z m2394 19
c9 -15 -13 -40 -35 -40 -9 0 -29 -9 -44 -21 -37 -29 -35 -1 3 40 29 31 64 40
76 21z m-2527 -23 c2 -12 -3 -17 -17 -17 -12 0 -21 6 -21 13 0 31 32 34 38 4z
m2619 7 c8 -20 -8 -36 -26 -25 -15 10 -8 41 9 41 6 0 13 -7 17 -16z m-1859
-23 c47 -25 94 -74 122 -130 25 -51 37 -144 22 -181 -9 -21 -11 -12 -12 50 0
42 -7 88 -15 105 l-14 30 7 -30 c12 -50 8 -168 -7 -202 -8 -19 -21 -33 -31
-33 -45 0 -95 -92 -88 -163 3 -29 5 -28 21 25 30 99 105 137 161 82 37 -38 33
-50 -12 -46 -34 3 -42 -1 -66 -29 -25 -29 -28 -39 -24 -86 4 -44 14 -66 56
-127 29 -41 52 -79 52 -85 0 -6 -27 18 -60 55 -65 71 -85 119 -75 182 4 27 3
32 -4 17 -29 -60 -1 -143 75 -229 42 -46 53 -66 36 -66 -15 0 -117 138 -134
182 -12 31 -17 37 -17 20 -1 -12 8 -41 19 -62 21 -41 10 -58 -11 -18 -8 14
-14 18 -17 10 -8 -25 -52 -13 -72 20 -51 84 -36 183 51 351 69 135 79 186 43
234 -11 15 -36 33 -55 40 -34 12 -34 12 -5 12 19 1 39 -10 62 -33 39 -39 47
-33 9 8 -32 35 -71 49 -96 35 -15 -7 -24 -7 -35 2 -17 14 -18 5 -2 -20 16 -26
4 -51 -22 -44 -36 9 -47 48 -26 88 31 56 96 71 164 36z m1193 2 c33 -20 54
-63 44 -92 -7 -24 -40 -45 -55 -36 -13 8 -13 42 0 50 6 3 10 11 10 18 0 8 -3
8 -11 0 -8 -8 -20 -8 -35 -3 -15 6 -34 6 -49 0 -27 -10 -75 -56 -75 -72 0 -4
12 5 28 21 15 17 41 33 57 36 l30 6 -32 -15 c-84 -39 -87 -114 -10 -258 73
-138 91 -196 84 -269 -6 -74 -33 -123 -70 -127 -20 -3 -27 1 -28 15 0 15 -2
14 -11 -4 -18 -37 -28 -26 -12 12 7 19 14 45 13 57 0 17 -5 11 -17 -20 -17
-44 -119 -182 -134 -182 -18 0 -5 24 37 69 71 76 105 176 74 221 -7 11 -8 5
-3 -21 8 -51 -23 -119 -86 -185 -28 -29 -50 -49 -50 -44 0 5 25 46 55 90 48
71 55 87 55 130 0 38 -6 55 -27 80 -23 27 -32 31 -65 28 -45 -4 -49 8 -12 46
55 55 132 16 160 -80 8 -30 18 -54 21 -54 11 0 -5 108 -21 138 -10 19 -29 36
-50 43 -47 17 -61 54 -61 156 0 44 -3 76 -7 70 -4 -7 -8 -48 -9 -92 -1 -71 -2
-76 -11 -45 -49 170 142 390 273 313z m-1436 -22 c7 -12 -12 -24 -25 -16 -11
7 -4 25 10 25 5 0 11 -4 15 -9z m1577 -6 c0 -5 -5 -11 -11 -13 -6 -2 -11 4
-11 13 0 9 5 15 11 13 6 -2 11 -8 11 -13z m-942 -99 c67 -48 120 -108 120
-134 0 -8 -13 3 -29 24 -15 21 -37 46 -47 55 -30 25 -114 72 -114 63 0 -21
-23 18 -30 52 l-9 39 22 -26 c12 -15 51 -47 87 -73z m-1261 19 c-20 -45 -23
-47 -30 -27 -14 37 22 105 44 83 4 -4 -2 -29 -14 -56z m212 52 c41 -32 50 -88
19 -127 -11 -14 -20 -20 -19 -15 0 6 6 19 14 29 21 27 19 39 -4 27 -15 -9 -22
-6 -34 12 -14 21 -17 21 -44 7 -19 -11 -33 -30 -43 -60 -18 -54 -50 -114 -56
-107 -13 12 -4 148 11 177 30 57 115 89 156 57z m1429 -18 c-11 -37 -29 -61
-41 -53 -15 9 -99 -47 -136 -92 -20 -24 -39 -41 -41 -39 -12 11 47 76 119 129
43 33 80 65 83 73 11 28 25 13 16 -18z m1064 10 c43 -33 56 -70 56 -154 0 -42
-3 -74 -7 -71 -11 6 -49 84 -60 121 -4 16 -21 36 -37 45 -26 14 -29 14 -43 -7
-12 -18 -19 -21 -34 -12 -23 12 -25 0 -4 -27 22 -29 17 -43 -5 -15 -24 28 -25
62 -5 101 23 44 94 54 139 19z m129 -25 c2 -14 2 -35 -1 -46 -4 -16 -9 -12
-29 23 -27 48 -25 76 6 60 10 -6 21 -22 24 -37z m-2405 -18 c11 -22 11 -33 2
-57 -12 -29 -33 -38 -45 -19 -3 5 -3 32 1 60 7 55 21 60 42 16z m676 14 c23
-11 54 -36 70 -56 l29 -37 -62 42 c-34 23 -78 45 -97 48 -24 4 -31 9 -22 14
20 13 38 11 82 -11z m671 11 c16 -6 12 -9 -17 -14 -21 -3 -65 -25 -100 -48
-55 -37 -60 -38 -38 -14 40 47 63 64 95 74 37 11 36 11 60 2z m639 -42 c8 -55
0 -74 -27 -63 -33 12 -21 114 13 114 4 0 10 -23 14 -51z m-1905 32 c24 -15 5
-43 -26 -39 -20 2 -29 9 -31 26 -3 17 1 22 20 22 13 0 29 -4 37 -9z m1839 -13
c-4 -29 -55 -39 -65 -13 -7 20 12 35 45 35 19 0 23 -5 20 -22z m-1762 3 c5 -5
32 -19 59 -30 36 -14 43 -20 26 -20 -23 -1 -24 -2 -6 -21 37 -41 -23 -13 -72
33 -32 30 -41 47 -25 47 4 0 12 -4 18 -9z m1644 -11 c-12 -22 -87 -80 -104
-80 -6 0 -5 5 2 12 17 17 15 28 -5 28 -10 1 4 10 31 20 27 11 54 24 60 30 17
17 27 11 16 -10z m-1416 -22 c-9 -54 -12 -58 -43 -58 -39 0 -49 17 -17 30 15
5 28 20 32 35 10 39 35 32 28 -7z m1196 17 c0 -8 13 -24 30 -36 34 -26 31 -39
-10 -39 -34 0 -40 8 -45 55 -2 25 1 35 11 35 8 0 14 -7 14 -15z m-770 -40 c25
-30 3 -25 -26 6 -22 24 -24 29 -8 21 11 -6 27 -18 34 -27z m-119 4 c23 -11 39
-23 36 -26 -3 -2 -15 1 -27 7 -11 6 -26 9 -33 6 -7 -2 -6 -5 4 -5 15 -1 48
-33 80 -76 7 -11 -3 -6 -23 12 -20 17 -45 34 -56 37 -16 5 -42 44 -42 61 0 10
22 4 61 -16z m479 18 c0 -2 -12 -14 -27 -28 -24 -22 -24 -13 0 19 8 11 27 17
27 9z m129 -27 c-6 -16 -15 -30 -19 -30 -5 0 -30 -16 -56 -36 -45 -35 -46 -35
-26 -7 23 33 51 58 72 66 10 4 8 6 -7 6 -12 1 -25 -3 -28 -9 -3 -5 -11 -10
-18 -10 -15 0 1 15 38 34 46 24 56 21 44 -14z m-1149 -5 c11 -13 8 -15 -14
-15 -25 0 -33 10 -19 23 10 11 19 8 33 -8z m1678 -3 c2 -7 -7 -12 -23 -12 -24
0 -26 2 -15 15 14 17 31 16 38 -3z m-2289 -38 c12 -15 21 -36 21 -48 -1 -20
-1 -20 -11 -3 -6 11 -26 25 -45 33 -40 17 -46 44 -10 44 15 0 33 -11 45 -26z
m1347 -15 c8 -17 14 -35 12 -40 -2 -6 -14 11 -26 36 -24 50 -12 53 14 4z m182
-1 c-24 -51 -28 -56 -28 -37 0 14 36 79 44 79 2 0 -5 -19 -16 -42z m1402 27
c0 -8 -15 -21 -34 -29 -19 -8 -39 -22 -45 -33 -9 -16 -10 -16 -11 6 0 14 10
35 22 48 24 26 68 31 68 8z m-2261 -11 c2 -2 -16 -4 -41 -4 -60 0 -131 -22
-174 -55 -38 -29 -62 -72 -89 -155 -9 -30 -26 -63 -37 -72 -16 -14 -17 -18 -5
-18 20 0 63 51 76 93 7 21 30 47 63 72 94 72 134 88 68 28 -23 -20 -51 -50
-63 -67 l-21 -31 37 28 c46 35 48 16 3 -29 -30 -30 -52 -40 -79 -35 -5 1 -5
-4 -1 -10 4 -7 22 -9 48 -6 32 4 49 15 79 48 42 47 47 42 16 -16 l-21 -40 26
24 c20 19 26 21 26 9 0 -14 -36 -36 -80 -50 -9 -3 -3 -8 16 -12 17 -4 43 -2
58 4 26 9 27 9 20 -12 -9 -32 -7 -32 -73 -9 -109 37 -130 26 -69 -37 l43 -43
-30 7 c-16 3 -54 19 -82 34 l-53 28 22 -31 22 -32 -24 20 c-12 11 -36 37 -51
59 l-28 38 23 32 c13 17 33 50 45 73 44 88 124 151 218 172 34 7 101 4 112 -5z
m1671 -6 c77 -24 141 -81 182 -162 11 -22 31 -55 44 -72 l23 -32 -28 -38 c-16
-22 -41 -50 -56 -64 l-28 -25 27 37 28 38 -67 -35 c-92 -48 -109 -45 -55 10
36 37 41 45 27 51 -21 8 -103 -12 -133 -31 -19 -12 -22 -11 -33 11 -15 34 -15
35 16 23 14 -5 40 -7 57 -3 l31 7 -40 14 c-37 13 -55 27 -55 47 0 5 12 -1 26
-15 l26 -24 -21 40 c-31 58 -26 63 17 15 32 -37 43 -42 87 -46 l50 -4 -41 19
c-36 16 -84 66 -84 86 0 3 17 -6 38 -22 36 -27 36 -27 17 -3 -10 14 -37 45
-60 69 -32 35 -35 41 -15 31 57 -29 130 -96 141 -128 13 -41 56 -92 76 -92 12
0 11 4 -5 18 -11 9 -28 42 -37 72 -27 83 -51 126 -89 155 -42 32 -112 55 -175
56 -45 2 -46 2 -11 9 37 7 64 5 120 -12z m-1059 -5 c13 -16 12 -17 -3 -4 -10
7 -18 15 -18 17 0 8 8 3 21 -13z m319 13 c0 -2 -8 -10 -17 -17 -16 -13 -17
-12 -4 4 13 16 21 21 21 13z m-1415 -94 c0 -81 3 -94 37 -163 52 -105 131
-189 220 -234 39 -19 77 -35 84 -35 8 0 14 -4 14 -10 0 -15 -7 -13 -84 24 -80
39 -198 132 -227 179 -10 18 -19 26 -19 18 0 -13 38 -70 65 -97 42 -43 141
-112 199 -140 39 -19 65 -34 58 -34 -7 0 -53 20 -102 45 -50 25 -90 44 -90 41
0 -2 18 -15 40 -30 23 -15 38 -31 35 -37 -4 -5 -11 -6 -17 -3 -7 5 -8 2 -2 -7
10 -16 34 -102 29 -107 -2 -2 -16 4 -32 14 -28 18 -28 18 -13 -2 8 -11 3 -8
-12 8 -15 15 -32 45 -38 68 -11 42 -24 51 -34 24 -10 -26 -7 -63 9 -99 l14
-35 -34 26 c-19 14 -49 43 -66 63 -21 26 -27 29 -18 11 7 -14 37 -52 68 -84
31 -32 46 -54 35 -48 -35 19 -122 119 -163 190 -58 100 -76 162 -76 267 0 82
3 97 34 163 19 40 46 82 59 93 14 10 25 19 26 19 0 0 1 -40 1 -88z m2550 28
c60 -95 79 -220 51 -326 -33 -125 -153 -305 -231 -347 -11 -5 6 18 37 52 32
34 63 72 69 84 6 12 -6 3 -26 -20 -20 -24 -49 -52 -65 -63 l-29 -21 14 35 c16
37 19 74 9 100 -10 27 -23 18 -34 -25 -6 -22 -26 -55 -43 -73 -18 -18 -23 -21
-12 -7 l20 25 -27 -17 c-15 -9 -29 -17 -31 -17 -6 0 14 82 25 104 6 12 6 16
-1 12 -5 -4 -12 -2 -16 3 -3 6 12 22 35 36 64 40 47 39 -37 -4 -43 -21 -89
-41 -103 -45 -14 -4 7 8 45 27 120 58 243 168 268 240 10 27 1 20 -21 -17 -11
-19 -50 -59 -87 -89 -91 -75 -225 -145 -225 -118 0 6 6 11 14 11 7 0 45 16 84
35 89 45 168 129 220 234 34 69 37 82 37 162 0 80 1 86 18 78 9 -6 28 -27 42
-49z m-2757 -34 c17 -17 26 -39 29 -73 4 -42 1 -54 -19 -78 -30 -34 -65 -29
-53 8 16 53 16 64 -4 87 -25 31 -51 19 -68 -32 -10 -30 -8 -52 14 -144 28
-121 27 -195 -2 -222 -16 -16 -17 -16 -9 8 13 42 5 96 -31 211 -39 125 -41
143 -20 197 29 73 110 92 163 38z m3016 22 c29 -13 66 -81 66 -120 0 -15 -16
-77 -35 -138 -36 -115 -43 -166 -31 -210 l7 -25 -20 24 c-28 31 -27 89 3 217
25 106 24 147 -2 177 -21 24 -39 21 -58 -9 -15 -22 -16 -31 -5 -60 21 -57 -11
-75 -48 -28 -39 49 -19 138 37 168 33 19 53 19 86 4z m-1580 -24 c3 -8 2 -12
-4 -9 -6 3 -10 10 -10 16 0 14 7 11 14 -7z m37 -7 c-10 -9 -11 -8 -5 6 3 10 9
15 12 12 3 -3 0 -11 -7 -18z m-1181 -26 c13 -25 3 -51 -20 -51 -15 0 -18 7
-17 35 2 38 20 46 37 16z m2356 -16 c0 -27 -4 -35 -17 -35 -22 0 -32 26 -19
51 17 31 35 23 36 -16z m-1516 0 c-7 -9 -15 -13 -19 -10 -3 3 1 10 9 15 21 14
24 12 10 -5z m655 -3 c-3 -3 -11 0 -18 7 -9 10 -8 11 6 5 10 -3 15 -9 12 -12z
m-1008 -78 c12 -19 13 -29 3 -60 -19 -56 -8 -183 18 -226 19 -30 20 -37 7 -41
-19 -8 -24 1 -40 76 -9 43 -14 53 -15 32 -1 -29 -2 -30 -13 -7 -8 18 -8 39 2
84 17 85 7 83 -17 -4 -12 -42 -21 -62 -21 -47 -1 15 6 46 14 69 8 23 15 59 14
79 0 20 -2 32 -4 26 -2 -5 -13 -43 -25 -83 -15 -47 -26 -70 -33 -63 -6 6 -3
25 8 55 13 34 16 64 13 121 l-5 74 39 -31 c22 -17 46 -41 55 -54z m1435 4 c-3
-68 0 -90 16 -120 15 -30 17 -40 7 -48 -9 -8 -18 7 -35 62 -12 40 -23 78 -25
83 -2 6 -4 -6 -4 -25 0 -19 6 -53 14 -75 8 -22 14 -53 14 -70 0 -22 -5 -13
-18 33 -18 61 -40 103 -28 52 16 -65 18 -109 8 -126 -9 -17 -11 -16 -12 11 -1
25 -3 22 -10 -15 -13 -66 -29 -99 -44 -93 -11 4 -9 14 8 46 18 34 22 59 22
127 0 47 -4 98 -9 113 -8 26 -4 33 44 78 29 27 53 49 54 49 1 0 1 -37 -2 -82z
m-2417 36 c0 -12 -8 -20 -22 -22 -26 -4 -28 1 -12 29 13 24 34 20 34 -7z
m3343 14 c18 -18 14 -38 -7 -38 -23 0 -35 15 -27 35 7 18 18 19 34 3z m-2008
-14 c-25 -15 -24 -15 15 -10 39 6 39 6 18 -10 -29 -21 -30 -39 -2 -24 11 6 28
9 37 7 13 -3 11 -6 -10 -15 -14 -6 -29 -16 -33 -21 -9 -15 -25 -14 -25 3 0 7
-9 25 -20 39 -19 24 -20 26 -3 36 29 17 51 12 23 -5z m661 5 c19 -10 19 -10
-1 -36 -11 -14 -20 -32 -20 -39 0 -19 -3 -18 -46 11 -37 25 -24 36 17 15 26
-15 24 4 -3 24 -22 16 -22 16 17 10 39 -5 40 -5 15 10 -28 17 -10 22 21 5z
m-2009 -86 c21 -19 24 -35 4 -27 -8 3 -23 1 -33 -4 -24 -12 -43 -5 -43 18 0
31 43 39 72 13z m3392 11 c19 -7 21 -40 4 -47 -7 -2 -24 0 -36 5 -13 4 -28 6
-33 2 -15 -9 -10 13 7 30 16 17 33 20 58 10z m-3173 -54 c25 -14 26 -60 1 -60
-16 0 -26 13 -50 63 -5 10 26 9 49 -3z m1370 -10 l24 -20 -28 10 c-42 15 -73
12 -116 -10 -25 -12 -43 -30 -49 -50 -6 -16 -15 -30 -21 -30 -5 0 -17 -3 -26
-7 -15 -5 -16 -3 -7 14 6 11 8 23 5 27 -8 8 25 45 62 67 42 26 125 26 156 -1z
m336 -17 c21 -16 38 -39 39 -50 1 -11 5 -26 9 -33 6 -9 1 -10 -16 -5 -13 4
-25 10 -27 14 -28 70 -94 103 -165 84 l-42 -11 25 20 c38 31 127 22 177 -19z
m1241 30 c-24 -50 -34 -63 -50 -63 -24 0 -25 45 0 59 20 12 55 14 50 4z
m-3248 -24 c0 -7 -5 -29 -12 -51 -8 -26 -14 -35 -20 -26 -12 19 -10 62 4 76
15 15 28 15 28 1z m1403 -17 c-3 -9 -13 -23 -21 -29 -19 -16 -8 -17 19 -3 22
12 23 11 8 -27 -6 -15 -12 -36 -15 -47 -6 -30 -13 -31 -24 -2 -15 40 -12 88 6
114 17 25 36 21 27 -6z m737 -23 c0 -5 -4 -9 -8 -9 -15 0 -32 24 -32 45 1 19
1 19 20 -4 11 -13 20 -27 20 -32z m1390 36 c8 -10 10 -27 5 -52 l-8 -38 -12
35 c-23 61 -15 91 15 55z m-2655 -24 c58 -33 115 -92 145 -150 31 -62 24 -60
-19 5 -21 32 -51 70 -66 84 -25 22 -24 19 7 -20 60 -76 90 -138 98 -198 5 -41
9 -52 14 -37 26 69 38 87 71 101 19 7 45 14 57 14 l23 0 -23 -18 c-31 -24 -53
-89 -41 -121 15 -38 1 -38 -15 0 -10 22 -15 27 -16 15 0 -10 9 -34 21 -52 17
-28 18 -33 5 -28 -9 4 -23 18 -32 33 l-15 26 6 -27 c5 -24 2 -28 -17 -28 -20
0 -18 -2 10 -18 19 -9 43 -31 54 -49 l19 -32 -69 41 c-86 52 -107 82 -99 149
7 56 -2 61 -38 24 l-25 -24 -1 67 c0 37 -5 76 -10 87 -7 17 -8 16 -7 -10 3
-67 -2 -168 -8 -162 -4 4 -10 57 -14 119 -7 115 -26 176 -64 207 -17 14 -21
31 -8 31 4 0 30 -13 57 -29z m1815 20 c0 -5 -7 -14 -16 -22 -38 -31 -57 -92
-64 -207 -4 -62 -10 -115 -14 -119 -3 -3 -6 38 -7 93 0 112 -17 104 -18 -8
l-1 -67 -25 24 c-36 37 -44 31 -38 -29 5 -51 4 -55 -28 -88 -32 -33 -129 -96
-129 -83 0 15 36 57 59 70 19 11 22 14 8 15 -14 0 -16 6 -12 28 6 27 6 27 -7
4 -8 -12 -24 -30 -37 -39 l-24 -16 22 30 c26 35 42 95 30 114 -6 9 -9 2 -9
-22 0 -19 -7 -44 -15 -55 -13 -17 -14 -16 -5 15 11 40 -8 96 -43 124 -22 19
-22 19 18 13 54 -7 105 -61 105 -111 0 -58 17 -31 22 34 4 63 39 131 107 214
l35 42 -38 -35 c-20 -19 -51 -56 -68 -82 -37 -59 -46 -62 -18 -8 30 59 86 118
145 151 53 31 65 34 65 20z m-2590 -9 c0 -5 -7 -17 -15 -28 -21 -28 -19 -45
15 -109 55 -104 63 -181 24 -220 -25 -25 -34 -17 -17 16 20 41 7 107 -38 178
-41 68 -48 118 -19 149 20 22 50 30 50 14z m3350 -17 c30 -32 23 -75 -24 -153
-43 -72 -54 -128 -33 -171 18 -36 9 -40 -19 -10 -33 36 -26 112 19 197 40 78
44 97 22 126 -32 42 -3 51 35 11z m-1789 -15 c5 0 9 -4 9 -8 0 -5 -14 -9 -32
-10 -17 0 -43 -9 -57 -20 -33 -25 -62 -116 -62 -202 -1 -87 -13 -128 -49 -170
l-30 -35 19 47 c11 25 22 68 26 95 3 26 8 62 10 79 3 17 9 44 15 60 21 56 -10
9 -35 -52 -24 -60 -50 -87 -95 -99 l-25 -7 21 23 c33 37 42 60 49 124 8 68 18
100 35 110 22 13 22 -5 2 -47 -12 -23 -20 -43 -18 -45 7 -8 58 42 74 73 19 36
99 95 120 88 8 -2 18 -4 23 -4z m320 -82 c17 -32 67 -83 75 -75 2 2 -6 22 -18
45 -23 48 -16 69 11 35 11 -13 21 -48 25 -89 7 -71 16 -96 49 -131 l20 -22
-34 9 c-42 12 -62 33 -83 91 -9 25 -23 54 -31 65 -14 17 -14 16 -4 -11 6 -16
15 -66 20 -109 5 -44 18 -100 29 -125 l20 -46 -30 32 c-35 38 -48 86 -49 172
-1 124 -46 221 -102 221 -9 0 -25 3 -35 7 -16 6 -16 7 2 14 30 11 112 -39 135
-83z m141 72 c21 0 23 -24 8 -66 -12 -31 -19 -28 -26 11 -3 16 -9 36 -14 46
-14 25 -12 35 2 21 7 -7 20 -12 30 -12z m1102 -42 c-19 -21 -102 -63 -110 -55
-2 2 1 18 7 35 9 25 17 32 37 32 15 0 38 6 52 13 31 16 38 3 14 -25z m-2892
14 c30 -3 39 -9 47 -35 6 -16 10 -31 9 -33 -8 -7 -83 27 -104 47 -28 26 -32
44 -6 33 9 -4 34 -9 54 -12z m-173 -16 c22 -26 -10 -63 -43 -50 -35 13 -24 64
14 64 10 0 23 -6 29 -14z m3240 0 c22 -26 -10 -63 -43 -50 -35 13 -24 64 14
64 10 0 23 -6 29 -14z m-1672 -42 c-2 -3 -18 -2 -33 3 l-29 7 30 6 c27 5 45
-4 32 -16z m88 5 c-30 -12 -45 -10 -45 4 0 10 10 12 32 9 28 -4 30 -6 13 -13z
m1765 -9 c0 -5 -12 -12 -27 -16 -24 -5 -47 -13 -86 -32 -4 -2 -2 8 4 21 15 33
67 59 91 46 10 -5 18 -14 18 -19z m-3566 -6 c39 -40 33 -60 -8 -29 -11 8 -32
15 -47 15 -29 0 -44 13 -34 30 12 20 62 10 89 -16z m1636 21 c0 -3 -11 -10
-25 -15 -13 -5 -39 -29 -56 -52 -23 -32 -29 -37 -24 -18 13 44 34 69 68 79 17
5 33 10 35 10 1 1 2 -1 2 -4z m261 -15 c20 -11 49 -60 49 -82 0 -7 -11 4 -25
24 -14 21 -38 44 -53 52 -20 12 -23 15 -9 16 10 0 27 -5 38 -10z m-271 -32
c-18 -13 -46 -48 -61 -78 -16 -30 -29 -49 -29 -42 0 41 76 142 108 142 8 0 0
-10 -18 -22z m244 -3 c27 -25 72 -112 63 -122 -3 -2 -10 11 -16 29 -13 37 -33
63 -75 96 -17 13 -23 22 -14 22 8 0 27 -11 42 -25z m-1526 -15 c-8 -19 -156
-170 -168 -170 -7 0 -10 -7 -6 -15 3 -9 -8 -40 -25 -71 -33 -58 -39 -98 -25
-176 8 -44 7 -48 -12 -48 -23 0 -28 12 -37 91 -6 51 -4 60 31 125 93 171 187
287 224 277 11 -3 20 -9 18 -13z m2907 -78 c35 -47 84 -123 110 -171 45 -82
47 -88 40 -144 -8 -76 -13 -87 -37 -87 -19 0 -20 4 -12 48 14 78 8 118 -25
176 -17 31 -28 62 -25 71 4 8 1 15 -6 15 -12 0 -160 151 -168 171 -4 9 28 17
47 11 7 -3 42 -43 76 -90z m-1586 47 c-35 -32 -38 -36 -12 -19 40 26 94 36
119 22 14 -8 9 -10 -24 -8 -91 5 -146 -71 -146 -199 0 -87 7 -144 16 -139 4 2
10 -1 14 -7 5 -8 3 -9 -6 -4 -8 5 -11 3 -9 -4 3 -7 8 -12 12 -11 5 1 24 -13
43 -29 39 -35 76 -40 114 -15 22 14 22 12 -3 -10 -38 -35 -59 -33 -107 10 -41
37 -54 37 -22 -1 9 -12 0 -4 -20 16 -98 99 -86 342 21 415 54 37 59 29 10 -17z
m148 20 c20 -12 45 -42 60 -73 23 -44 27 -63 28 -141 0 -109 -19 -166 -73
-216 -20 -19 -27 -22 -14 -8 24 28 29 44 10 33 -8 -4 -10 -3 -5 2 5 5 14 9 19
9 6 0 13 6 16 14 3 9 0 11 -8 6 -9 -5 -11 -4 -6 4 4 6 10 9 14 7 19 -11 21
185 3 237 -7 21 -25 52 -39 69 -26 31 -17 31 23 -1 11 -8 4 1 -14 22 -19 20
-41 37 -48 37 -7 0 -13 5 -13 10 0 15 9 13 47 -11z m-1804 -30 c40 -49 32
-114 -16 -137 -39 -19 -53 -5 -22 23 30 29 31 36 7 65 -37 45 -83 1 -84 -80 0
-41 7 -58 41 -107 22 -32 43 -71 47 -88 7 -27 2 -24 -52 34 -78 84 -94 114
-94 181 0 62 25 114 63 130 33 14 90 4 110 -21z m3561 21 c40 -15 66 -66 66
-130 0 -67 -16 -97 -92 -180 -70 -74 -79 -55 -17 38 59 88 68 154 27 202 -22
25 -33 25 -58 0 -26 -26 -25 -36 5 -65 30 -27 19 -40 -19 -25 -58 22 -60 116
-3 150 36 22 54 24 91 10z m-4129 -50 c19 -12 44 -35 56 -51 l21 -29 -36 16
c-28 14 -40 15 -60 6 -35 -16 -60 -68 -60 -127 0 -71 39 -137 154 -259 102
-108 98 -109 -19 -7 -40 36 -88 88 -107 115 -38 58 -68 155 -59 188 5 21 5 21
-6 4 -16 -26 -5 -95 27 -164 18 -37 53 -82 100 -129 41 -40 72 -73 69 -73 -9
0 -121 95 -140 119 -45 56 -47 58 -34 31 23 -47 63 -92 123 -137 34 -26 66
-50 71 -55 21 -19 -92 35 -125 59 l-35 26 24 -27 c14 -14 52 -42 85 -60 34
-19 79 -51 101 -71 22 -21 33 -33 25 -27 -29 20 -171 81 -165 71 4 -5 34 -23
68 -40 76 -39 112 -66 134 -98 12 -19 4 -15 -30 15 -37 33 -127 82 -127 69 0
-2 19 -14 43 -28 50 -30 105 -87 137 -142 22 -38 21 -37 -27 15 -56 62 -107
93 -231 140 -129 49 -176 103 -217 245 -26 88 -58 156 -92 192 -25 27 -27 32
-12 36 38 10 68 -5 95 -49 15 -24 29 -42 31 -40 2 2 -5 19 -16 37 -27 43 -27
113 -2 154 61 100 150 128 236 75z m1365 5 c25 -13 40 -24 34 -25 -17 0 -82
28 -89 40 -10 15 6 11 55 -15z m1915 14 c-7 -11 -31 -21 -75 -33 -14 -4 -5 5
20 18 49 27 65 32 55 15z m1443 -2 c17 -7 46 -25 63 -42 60 -56 74 -130 40
-198 -14 -28 -15 -35 -5 -26 9 7 22 25 30 41 13 24 20 28 58 28 l44 0 -30 -32
c-39 -42 -59 -83 -97 -205 -42 -131 -81 -179 -178 -218 -158 -64 -211 -94
-264 -153 -48 -53 -50 -54 -29 -17 32 55 87 112 138 142 23 14 42 26 42 28 0
13 -90 -36 -128 -69 -26 -23 -40 -32 -32 -21 31 41 64 67 130 100 38 19 71 39
75 44 8 13 -145 -56 -170 -77 -11 -9 -6 -2 10 17 17 18 64 53 106 78 43 24 88
56 100 70 20 20 15 19 -28 -10 -28 -19 -66 -40 -84 -46 -38 -13 -36 -11 47 52
60 45 100 90 123 137 10 21 10 22 -1 9 -47 -56 -68 -78 -108 -110 -78 -62 -78
-56 1 21 51 50 85 94 103 132 32 69 43 138 27 164 -11 17 -12 16 -7 -8 8 -36
-24 -136 -62 -190 -17 -25 -66 -76 -109 -114 -122 -107 -124 -106 -18 7 119
126 159 192 159 264 0 59 -25 111 -60 127 -19 9 -32 8 -60 -5 -34 -17 -34 -17
-24 3 12 23 66 65 100 79 32 13 58 12 98 -2z m-2874 -38 c39 -55 29 -58 -12
-3 -18 24 -29 44 -25 44 4 0 21 -19 37 -41z m476 26 c57 -29 89 -139 69 -235
-9 -41 -21 -64 -49 -92 -21 -21 -43 -38 -50 -38 -7 0 -29 17 -50 38 -28 28
-40 51 -49 92 -20 95 14 209 70 237 30 16 24 16 59 -2z m429 -27 c-18 -24 -34
-45 -36 -47 -2 -2 -3 0 -3 5 0 10 58 84 67 84 2 0 -10 -19 -28 -42z m-1740 3
c26 -36 26 -45 2 -31 -27 14 -66 13 -80 -4 -9 -11 -6 -12 13 -9 19 4 36 -5 73
-41 l48 -46 -35 -1 -35 -1 38 -17 38 -18 -44 -12 c-37 -11 -49 -10 -74 2 -16
9 -35 23 -42 31 -11 13 -8 18 21 36 18 11 41 20 51 20 9 0 17 5 17 10 0 6 -16
10 -35 10 -24 0 -45 -9 -68 -30 -27 -24 -41 -29 -64 -24 l-29 6 63 64 c55 56
89 81 115 83 4 1 16 -12 27 -28z m804 -13 c16 -20 27 -42 25 -49 -3 -8 -12 0
-23 19 -28 46 -37 39 -15 -10 29 -65 24 -79 -11 -28 -33 49 -32 22 2 -37 20
-36 13 -41 -31 -18 -56 29 -66 85 -24 135 15 17 31 29 37 27 6 -2 24 -20 40
-39z m1031 11 c42 -49 32 -105 -24 -134 -45 -23 -54 -19 -32 18 11 17 23 43
27 57 6 22 4 21 -13 -6 -27 -42 -47 -54 -37 -23 4 13 14 36 22 52 8 16 9 27 3
27 -5 0 -10 -3 -10 -7 0 -5 -9 -19 -20 -33 -13 -17 -20 -20 -20 -10 0 17 57
90 70 90 4 0 20 -14 34 -31z m786 21 c5 0 40 -31 78 -69 l69 -69 -30 -6 c-23
-5 -36 0 -64 24 -23 21 -44 30 -68 30 -45 0 -45 -16 -1 -24 18 -4 41 -15 50
-25 15 -16 15 -19 -1 -34 -33 -30 -72 -38 -114 -25 l-39 11 37 18 38 17 -33 1
-33 1 18 24 c28 37 80 69 103 63 11 -3 20 -2 20 3 0 21 -79 27 -98 8 -20 -20
-14 1 10 33 13 17 28 27 36 24 7 -3 17 -5 22 -5z m-2230 -48 c3 -3 -5 -2 -18
1 -19 4 -21 3 -11 -9 6 -8 18 -14 25 -14 8 0 14 -4 14 -10 0 -5 -4 -10 -9 -10
-13 0 -71 50 -71 60 0 8 59 -7 70 -18z m1850 19 c0 -11 -58 -61 -71 -61 -5 0
-9 5 -9 10 0 6 6 10 14 10 7 0 20 7 27 17 13 15 12 15 -8 4 -13 -6 -23 -8 -23
-3 0 4 12 13 28 19 36 14 42 15 42 4z m-1948 -107 c78 -25 125 -59 148 -105
12 -23 24 -39 26 -36 13 12 -39 88 -90 131 -31 26 -61 57 -68 69 -9 17 -3 14
26 -10 20 -18 42 -33 49 -33 21 0 85 -59 108 -100 32 -56 41 -50 13 7 -17 32
-24 62 -23 97 l1 51 9 -39 c14 -61 53 -103 125 -137 49 -24 71 -41 91 -72 38
-61 68 -77 38 -21 -8 16 -23 47 -32 69 -9 22 -19 44 -21 49 -13 27 67 -49 88
-84 20 -33 36 -45 83 -62 32 -12 72 -34 89 -50 35 -33 48 -30 25 6 l-17 25 57
-20 c79 -27 134 -84 132 -136 0 -10 -9 1 -19 23 -19 43 -53 74 -80 74 -12 -1
-12 -3 3 -11 20 -12 47 -61 47 -86 0 -11 -6 -6 -17 15 -9 18 -24 37 -34 43
-23 12 -25 -3 -4 -21 8 -7 15 -23 15 -37 0 -13 5 -34 11 -46 6 -12 -2 -7 -20
13 -16 19 -33 42 -36 50 -8 22 -110 87 -163 104 -26 8 -80 24 -121 36 -63 18
-82 29 -127 75 -30 30 -54 52 -54 49 0 -12 40 -82 54 -93 26 -22 18 -31 -15
-19 -27 9 -80 68 -92 101 -2 7 -8 9 -12 5 -4 -4 4 -27 18 -52 14 -26 23 -46
20 -46 -3 0 -38 35 -79 78 l-74 77 42 -65 c23 -36 51 -76 62 -89 l21 -23 -25
7 c-14 4 -35 17 -47 28 -13 11 -23 16 -23 11 0 -18 53 -61 110 -89 54 -27 56
-27 135 -15 71 11 91 10 165 -5 99 -21 165 -49 185 -78 20 -29 11 -32 -22 -8
-15 11 -68 31 -118 43 -82 20 -96 21 -187 9 -90 -11 -101 -11 -140 7 -24 11
-63 37 -88 59 -49 43 -147 108 -195 129 -16 7 -24 13 -16 14 8 0 34 -9 58 -21
23 -11 49 -19 55 -16 7 3 0 10 -17 16 -33 14 -114 72 -115 83 0 4 21 0 48 -8
26 -9 54 -16 62 -16 8 -1 29 -10 45 -21 l30 -21 -25 28 c-14 15 -41 36 -61 46
-55 29 -98 68 -120 112 l-21 40 36 -35 c20 -20 57 -42 88 -53z m2079 49 c-22
-44 -47 -68 -117 -111 -28 -18 -60 -42 -70 -55 l-19 -22 22 19 c13 10 33 20
45 22 13 2 44 10 71 18 26 8 47 13 47 10 0 -10 -43 -44 -95 -74 -56 -33 -41
-41 20 -10 22 11 46 20 55 20 8 -1 2 -7 -15 -14 -48 -21 -146 -86 -195 -129
-25 -22 -64 -48 -88 -59 -39 -18 -50 -18 -140 -7 -91 12 -105 11 -187 -9 -50
-12 -103 -32 -118 -43 -34 -25 -42 -21 -21 10 21 30 83 55 185 76 73 15 95 16
164 5 80 -12 81 -12 135 15 57 28 110 71 110 89 0 5 -10 0 -22 -11 -13 -11
-34 -24 -48 -28 l-25 -7 21 23 c20 23 72 99 88 129 4 8 -24 -18 -62 -57 -38
-40 -72 -73 -75 -73 -3 0 6 20 20 46 14 25 22 48 18 52 -4 4 -9 3 -11 -3 -20
-52 -64 -95 -113 -110 -23 -7 -23 -6 7 31 17 22 36 52 42 68 10 26 6 24 -31
-17 -51 -59 -60 -64 -191 -102 -106 -32 -222 -94 -233 -125 -3 -8 -18 -30 -34
-48 l-28 -33 11 44 c6 24 17 52 25 61 8 9 12 18 10 20 -8 8 -39 -21 -54 -50
-13 -25 -15 -26 -15 -8 0 12 11 38 25 58 16 23 20 36 11 36 -20 0 -54 -42 -70
-85 -11 -30 -15 -34 -15 -17 -2 57 50 113 132 141 l57 20 -17 -25 c-23 -36
-10 -39 26 -5 18 17 42 33 54 36 61 17 95 39 118 76 13 22 38 51 56 65 l32 24
-21 -52 c-12 -29 -28 -62 -35 -73 -17 -26 -16 -36 2 -28 9 3 25 23 36 44 15
31 34 46 89 74 77 39 118 84 127 142 6 38 7 38 14 10 8 -31 -9 -103 -35 -142
-9 -14 -12 -25 -6 -25 5 0 18 17 29 39 19 37 73 91 91 91 5 0 29 16 55 35 64
49 41 11 -30 -49 -51 -44 -104 -121 -91 -133 2 -3 14 13 26 36 23 46 70 80
148 106 32 10 67 31 85 50 18 19 33 34 35 34 1 1 -6 -16 -17 -36z m-1396 -13
c3 -5 1 -10 -4 -10 -6 0 -11 5 -11 10 0 6 2 10 4 10 3 0 8 -4 11 -10z m-20
-20 c3 -5 -3 -10 -14 -10 -12 0 -21 5 -21 10 0 6 6 10 14 10 8 0 18 -4 21 -10z
m115 -27 c0 -26 -3 -34 -11 -26 -9 9 -3 63 7 63 2 0 4 -17 4 -37z m430 -27
c-7 -7 -10 4 -9 30 1 39 1 39 10 9 5 -18 5 -33 -1 -39z m140 54 c0 -5 -9 -10
-21 -10 -11 0 -17 5 -14 10 3 6 13 10 21 10 8 0 14 -4 14 -10z m-790 -15 c0
-8 -2 -15 -4 -15 -2 0 -6 7 -10 15 -3 8 -1 15 4 15 6 0 10 -7 10 -15z m40 5
c0 -5 -2 -10 -4 -10 -3 0 -8 5 -11 10 -3 6 -1 10 4 10 6 0 11 -4 11 -10z m800
6 c0 -3 -4 -8 -10 -11 -5 -3 -10 -1 -10 4 0 6 5 11 10 11 6 0 10 -2 10 -4z
m34 -11 c-4 -8 -8 -15 -10 -15 -2 0 -4 7 -4 15 0 8 4 15 10 15 5 0 7 -7 4 -15z
m-2166 -27 c30 -30 -4 -77 -41 -57 -29 17 -15 69 18 69 6 0 16 -5 23 -12z
m3490 0 c18 -18 15 -46 -6 -57 -39 -21 -73 36 -34 58 22 13 26 13 40 -1z
m-2113 -5 c-45 -7 -55 -23 -15 -23 l34 0 -39 -41 -40 -42 35 7 c19 3 52 18 73
32 30 19 42 23 51 14 8 -8 6 -10 -9 -5 -20 7 -20 6 -1 -9 19 -16 19 -16 -5
-17 -24 -1 -24 -1 4 -11 35 -13 34 -24 -2 -31 -15 -3 -42 -17 -58 -31 -36 -30
-52 -22 -21 11 28 30 18 39 -15 12 -15 -11 -27 -15 -27 -9 0 7 -6 8 -19 0 -11
-5 -27 -10 -37 -10 -16 0 -16 1 1 20 18 20 18 20 -15 13 -28 -5 -32 -4 -27 10
4 10 1 17 -6 17 -7 0 -18 5 -25 12 -19 19 102 88 153 86 34 -1 35 -2 10 -5z
m802 -31 c48 -30 60 -41 51 -50 -7 -7 -18 -12 -25 -12 -7 0 -10 -7 -6 -17 5
-14 1 -15 -27 -10 -33 7 -33 7 -15 -13 18 -19 17 -20 -1 -20 -11 0 -29 7 -42
15 -20 15 -21 15 -15 -2 6 -15 2 -14 -21 5 -40 31 -55 27 -23 -6 35 -37 23
-49 -16 -16 -16 14 -43 28 -58 31 -38 7 -37 20 4 32 l32 9 -29 1 c-29 1 -29 2
-10 17 19 15 19 16 -1 9 -15 -5 -17 -3 -9 5 9 9 21 5 51 -14 21 -14 54 -29 73
-32 l35 -7 -40 42 -39 41 34 0 c43 0 28 17 -20 23 -31 3 -30 4 10 5 36 2 57
-5 107 -36z m-2355 -11 c5 -18 6 -36 3 -40 -10 -9 -45 38 -45 61 0 33 33 17
42 -21z m3838 20 c0 -11 -11 -33 -25 -48 l-26 -28 7 40 c8 49 11 55 30 55 8 0
14 -9 14 -19z m-2165 -11 c3 -6 -1 -7 -9 -4 -18 7 -21 14 -7 14 6 0 13 -4 16
-10z m475 6 c0 -2 -7 -7 -16 -10 -8 -3 -12 -2 -9 4 6 10 25 14 25 6z m-1657
-102 c-10 -7 -21 -14 -24 -14 -3 0 -22 -25 -42 -55 -28 -43 -31 -53 -15 -44
32 17 30 5 -3 -29 -33 -34 -57 -39 -91 -21 -19 11 -19 12 18 33 33 18 47 37
89 123 l50 103 18 -41 c16 -40 16 -42 0 -55z m2786 69 c-13 -35 -55 -80 -92
-100 -23 -11 -31 -12 -43 -2 -13 11 -8 15 34 31 27 10 58 28 68 40 l19 21 -40
-20 c-63 -31 -92 -36 -99 -15 -3 9 -8 22 -11 27 -3 6 18 10 53 11 33 0 70 7
87 17 17 9 31 16 32 17 1 0 -2 -12 -8 -27z m186 -200 l39 -22 -27 -10 c-38
-15 -49 -14 -75 5 -35 24 -26 -2 11 -29 17 -13 56 -37 85 -53 30 -15 60 -40
68 -56 16 -31 18 -76 4 -98 -7 -11 -10 -6 -10 21 0 25 -7 43 -26 60 -23 21
-34 24 -97 22 -84 -2 -106 10 -99 57 2 16 6 30 9 30 2 0 16 -13 30 -30 18 -22
33 -30 56 -30 32 0 32 0 8 13 -34 17 -63 59 -65 93 -1 16 -5 35 -9 42 -10 15
-2 15 24 2 13 -8 8 5 -19 44 -20 31 -49 60 -64 67 -25 10 -25 12 -13 37 8 15
17 36 20 47 5 15 18 -4 58 -85 44 -89 58 -108 92 -127z m-2902 202 c20 -8 57
-15 83 -15 40 0 45 -2 34 -15 -6 -8 -9 -19 -5 -24 9 -16 -54 -2 -94 21 -18 10
-35 17 -37 15 -8 -8 36 -39 80 -56 40 -15 45 -19 32 -30 -12 -10 -20 -9 -44 3
-35 18 -92 81 -92 101 0 18 0 18 43 0z m3306 -44 c-15 -5 -22 6 -14 19 6 9 10
9 16 -1 5 -8 4 -15 -2 -18z m-3919 9 c0 -5 -7 -10 -15 -10 -8 0 -15 5 -15 10
0 6 7 10 15 10 8 0 15 -4 15 -10z m848 -7 c-21 -24 -13 -41 16 -36 13 3 37 -2
52 -11 l29 -17 -30 4 c-16 2 -39 7 -50 12 -16 5 -15 3 5 -14 14 -12 37 -24 53
-27 15 -4 27 -10 27 -15 0 -17 -28 -9 -66 21 -21 17 -56 43 -77 59 -40 31 -37
37 27 40 27 1 28 0 14 -16z m2259 11 c25 -7 34 2 -91 -94 -39 -30 -66 -38 -66
-20 0 6 7 10 16 10 18 0 88 40 81 46 -2 2 -20 -3 -40 -11 -20 -8 -38 -11 -41
-6 -8 12 50 34 73 28 28 -7 34 20 8 38 -21 15 -21 15 8 15 17 0 40 -3 52 -6z
m-3016 -34 c26 -14 24 -30 -3 -30 -12 0 -34 -12 -49 -26 -29 -28 -49 -25 -49
6 0 20 44 60 67 60 8 0 23 -5 34 -10z m3793 -11 c27 -21 34 -53 15 -65 -6 -3
-23 6 -38 20 -15 14 -37 26 -49 26 -26 0 -29 15 -4 29 26 16 47 13 76 -10z
m-3249 -49 c3 -5 -6 -17 -20 -26 -27 -17 -55 -63 -54 -86 0 -7 4 -3 9 9 10 24
87 80 97 70 9 -10 -24 -55 -47 -62 -11 -3 -30 -28 -42 -56 -25 -54 -36 -47
-37 24 -1 44 10 70 47 110 27 29 37 33 47 17z m175 1 c0 -5 -8 -12 -17 -15
-10 -3 -31 -17 -48 -31 l-30 -25 57 26 c53 23 59 24 80 10 25 -18 23 -19 -61
-36 -30 -6 -69 -20 -88 -31 -37 -23 -39 -20 -19 20 29 56 126 119 126 82z
m946 -12 c19 -11 39 -28 44 -37 9 -14 10 -12 4 8 l-6 25 30 -28 c28 -27 29
-30 14 -47 -16 -17 -18 -17 -32 2 -8 11 -27 34 -43 50 -24 27 -32 29 -70 23
-39 -5 -41 -5 -23 10 26 20 42 19 82 -6z m470 6 c18 -15 16 -16 -21 -10 -33 5
-47 2 -68 -15 -15 -12 -27 -26 -27 -32 0 -5 -9 -21 -20 -35 -14 -18 -20 -21
-20 -10 0 9 -7 20 -15 25 -13 7 -11 13 15 35 16 15 30 22 30 17 0 -6 17 1 37
15 43 29 62 31 89 10z m928 -5 c27 -17 76 -84 76 -102 0 -4 -15 2 -33 12 -19
11 -60 25 -93 31 -74 14 -80 18 -55 36 19 13 27 12 77 -11 60 -28 59 -12 -1
20 -19 10 -35 22 -35 26 0 14 35 8 64 -12z m158 -7 c14 -16 31 -38 37 -50 12
-24 14 -88 2 -117 -6 -15 -11 -10 -25 28 -12 30 -28 51 -45 61 -30 15 -69 65
-51 65 25 0 72 -33 90 -63 11 -18 20 -26 20 -19 0 24 -29 69 -55 86 -14 9 -23
21 -20 26 10 16 20 12 47 -17z m-2307 -3 c3 -6 -3 -22 -14 -36 -12 -15 -21
-34 -21 -43 1 -10 6 -7 15 10 19 35 43 43 66 23 25 -23 24 -31 -7 -38 -14 -4
-36 -17 -49 -30 -29 -29 -35 -24 -35 24 0 66 27 119 45 90z m1932 -49 c15 -74
1 -97 -38 -60 -17 16 -40 29 -50 29 -24 0 -24 12 0 34 23 20 47 12 66 -23 9
-17 14 -20 15 -10 0 9 -9 28 -21 43 -11 14 -17 31 -14 36 11 18 34 -8 42 -49z
m-2767 32 c35 -20 50 -52 50 -104 0 -48 -21 -92 -95 -194 -30 -42 -55 -87 -55
-99 0 -11 -5 -28 -11 -36 -8 -11 -9 0 -4 40 4 38 22 88 60 163 68 135 70 164
14 186 -20 7 -32 6 -48 -5 -22 -16 -28 -48 -11 -59 6 -3 10 -13 10 -21 0 -23
-47 -17 -64 8 -25 35 -19 67 18 104 39 39 89 45 136 17z m3680 0 c29 -17 50
-51 50 -81 0 -29 -29 -62 -56 -62 -24 0 -34 23 -14 35 19 11 10 44 -16 61 -24
16 -27 16 -52 -3 -15 -11 -29 -30 -30 -43 -2 -14 19 -69 52 -134 40 -80 57
-127 61 -166 5 -55 -7 -48 -19 11 -3 14 -27 54 -54 90 -91 120 -113 195 -75
259 29 50 99 65 153 33z m-3590 -28 c0 -8 -7 -15 -15 -15 -16 0 -20 12 -8 23
11 12 23 8 23 -8z m3408 -3 c2 -7 -3 -12 -12 -12 -9 0 -16 7 -16 16 0 17 22
14 28 -4z m-3198 -58 c-14 -37 -49 -74 -69 -74 -11 0 -12 -3 -4 -11 13 -13 68
13 86 41 17 28 24 25 29 -10 7 -47 -15 -59 -99 -57 -63 2 -74 -1 -97 -22 -19
-17 -26 -35 -26 -60 0 -27 -3 -32 -10 -21 -14 22 -12 67 4 98 9 17 42 43 87
67 39 22 79 50 88 61 21 28 24 24 11 -12z m1444 30 c20 -8 21 -57 2 -73 -7 -6
-20 -9 -29 -5 -19 7 -41 59 -32 73 7 12 35 14 59 5z m130 -9 c14 -39 -32 -88
-60 -64 -17 14 -18 66 -1 72 25 11 55 7 61 -8z m-1703 -14 l31 -19 -30 -16
c-17 -9 -32 -16 -34 -16 -2 0 -3 16 -3 35 0 19 1 35 2 35 2 0 17 -9 34 -19z
m3251 -16 c-2 -19 -8 -33 -12 -30 -4 2 -20 9 -35 15 l-28 11 34 18 c46 25 46
25 41 -14z m-2765 -32 c-42 -46 -107 -131 -107 -140 0 -4 38 30 84 75 85 83
106 96 106 64 0 -10 5 -23 11 -29 7 -7 -11 -22 -63 -51 -94 -52 -138 -100
-194 -216 -36 -75 -46 -108 -51 -167 -7 -84 -16 -72 -34 43 -13 84 0 176 36
256 28 60 103 172 117 172 5 0 -5 -21 -22 -46 -28 -40 -96 -202 -88 -209 2 -2
23 33 48 78 44 79 173 228 186 215 3 -4 -10 -24 -29 -45z m2302 -29 c47 -51
118 -161 135 -208 3 -10 9 -17 12 -14 9 10 -54 166 -86 212 -17 25 -27 46 -22
46 14 0 89 -112 117 -172 35 -78 49 -183 35 -266 -16 -97 -26 -104 -33 -26 -5
51 -18 90 -51 160 -56 116 -98 163 -193 215 -54 30 -72 44 -64 52 6 6 11 19
11 29 0 32 21 19 113 -69 l90 -88 -44 63 c-24 35 -59 80 -76 99 -18 20 -33 37
-33 40 0 12 44 -24 89 -73z m-2999 56 c0 -5 -4 -10 -10 -10 -5 0 -10 5 -10 10
0 6 5 10 10 10 6 0 10 -4 10 -10z m505 0 c-3 -5 -1 -18 4 -29 9 -15 4 -31 -24
-77 -19 -32 -35 -60 -35 -64 0 -10 -57 -40 -75 -40 -14 0 -11 6 11 29 30 31
63 88 88 154 8 20 20 37 26 37 6 0 8 -4 5 -10z m2668 -44 c17 -48 62 -120 93
-151 9 -9 14 -18 12 -20 -6 -6 -88 35 -88 44 0 4 -16 33 -35 65 -27 45 -32 62
-25 80 5 13 6 27 2 31 -4 4 0 6 8 3 8 -3 23 -26 33 -52z m487 44 c0 -5 -4 -10
-10 -10 -5 0 -10 5 -10 10 0 6 5 10 10 10 6 0 10 -4 10 -10z m-2787 -47 c-8
-21 -20 -44 -27 -52 -9 -11 -8 -13 4 -9 8 2 28 23 43 46 27 40 58 54 72 33 11
-20 -56 -80 -113 -101 -67 -25 -133 -62 -153 -86 -12 -14 -8 -14 26 3 22 11
77 30 121 42 48 14 92 33 108 47 14 14 26 20 26 15 0 -23 -83 -78 -152 -100
-87 -27 -150 -62 -170 -93 -8 -13 -18 -43 -22 -68 -4 -25 -11 -65 -15 -90 l-7
-45 -13 45 c-31 108 14 203 146 305 50 39 101 87 113 108 11 20 23 37 25 37 2
0 -3 -17 -12 -37z m1890 -37 c10 -14 23 -26 29 -26 7 0 7 4 0 13 -12 14 -43
87 -37 87 2 0 13 -17 25 -38 12 -21 31 -44 42 -51 11 -7 53 -39 94 -73 111
-89 152 -187 123 -288 l-13 -45 -7 45 c-4 25 -11 65 -15 90 -4 25 -14 55 -22
68 -20 31 -83 66 -171 93 -72 23 -161 85 -161 112 0 6 15 -3 33 -20 23 -23 57
-39 118 -56 47 -14 101 -32 120 -41 l34 -17 -34 30 c-19 17 -69 44 -112 62
-69 27 -139 78 -139 100 0 5 8 13 18 18 18 11 31 0 75 -63z m-1291 13 c35 -18
78 -43 97 -58 24 -18 48 -26 80 -27 61 -3 62 -3 21 -19 -19 -7 -30 -14 -23
-14 15 -1 43 -29 43 -43 0 -6 -7 -5 -17 3 -15 13 -15 12 -1 -11 9 -14 19 -36
22 -50 7 -24 6 -24 -8 -6 -20 25 -20 17 -2 -19 10 -18 16 -22 20 -13 3 7 4 2
1 -12 -3 -14 -12 -52 -19 -86 -18 -82 -30 -100 -77 -124 -53 -27 -66 -57 -53
-121 8 -37 8 -49 -2 -49 -6 0 -35 -16 -63 -35 -28 -19 -55 -35 -61 -35 -5 0
-10 -7 -10 -16 0 -13 -8 -15 -40 -12 -22 2 -40 1 -40 -2 0 -3 -12 -18 -26 -34
-24 -27 -26 -28 -39 -10 -8 11 -12 27 -9 38 4 11 2 16 -4 12 -5 -3 -13 10 -17
30 -6 34 -7 35 -25 19 -10 -9 -21 -29 -23 -44 -3 -18 -4 -14 -6 14 0 22 3 55
9 73 7 28 7 32 -5 22 -10 -8 -15 -8 -21 1 -11 18 61 77 100 82 l31 4 -35 1
c-23 1 -52 -9 -85 -28 -27 -16 -58 -30 -68 -30 -13 0 -34 34 -77 121 -33 67
-60 129 -60 138 0 9 7 29 15 45 8 15 15 35 15 42 0 8 5 14 10 14 13 0 13 -3
-6 -60 -9 -27 -14 -55 -11 -62 3 -7 8 6 12 30 4 23 11 42 16 42 5 0 9 13 9 29
0 29 19 55 21 29 0 -7 5 3 11 22 9 31 11 33 19 15 7 -17 8 -16 8 8 1 15 8 54
17 86 17 59 17 59 40 45 12 -9 29 -25 37 -38 14 -21 14 -22 -14 -18 -16 2 -29
2 -29 -1 0 -3 20 -26 45 -51 36 -38 51 -46 80 -46 44 0 44 6 1 24 -19 8 -39
24 -45 35 -11 21 -11 21 21 2 18 -11 56 -27 85 -36 51 -17 53 -17 132 10 49
17 93 26 115 23 39 -4 39 -2 -18 60 -39 43 -64 55 -153 77 -77 18 -114 17
-203 -9 -61 -18 -80 -10 -53 23 13 15 36 24 78 31 94 14 166 5 237 -31z m923
31 c49 -7 75 -16 87 -30 17 -21 58 -137 58 -165 0 -8 4 -15 10 -15 5 0 12 -11
16 -25 3 -13 11 -23 18 -22 7 1 12 -17 12 -51 1 -29 5 -56 8 -59 6 -7 10 36 7
75 -1 12 1 22 3 22 8 0 46 -86 46 -103 0 -8 -27 -69 -60 -136 -43 -87 -64
-121 -77 -121 -10 0 -40 14 -68 30 -33 19 -62 29 -85 28 l-35 -1 31 -4 c39 -5
111 -64 100 -82 -6 -9 -11 -9 -21 -1 -12 10 -12 6 -5 -22 6 -18 10 -49 9 -68
l-1 -35 -9 31 c-15 51 -35 50 -49 -4 -6 -26 -19 -55 -27 -64 -15 -16 -17 -15
-42 15 -22 27 -32 32 -62 29 -31 -3 -37 1 -42 20 -4 12 -9 19 -13 16 -3 -4
-29 9 -56 28 -28 19 -56 34 -62 34 -10 0 -10 12 -2 49 13 64 0 94 -53 121 -47
24 -55 35 -75 121 -26 106 -28 117 -18 94 8 -18 9 -17 14 7 3 15 1 25 -4 22
-14 -9 3 49 21 71 15 18 15 19 -1 6 -10 -7 -18 -10 -18 -5 0 14 13 30 35 42
19 10 18 12 -13 18 -43 9 -33 18 22 19 30 0 53 8 77 26 66 51 175 97 229 98
14 0 57 -4 95 -9z m-3213 -32 c-17 -17 -15 -55 4 -87 38 -65 136 -96 269 -86
65 5 92 2 147 -15 36 -11 77 -29 90 -40 30 -25 22 -25 -37 1 -36 16 -81 23
-193 29 -81 5 -158 12 -172 15 -18 4 -15 1 9 -11 19 -9 86 -20 155 -25 106 -9
196 -24 196 -33 0 -1 -48 -1 -107 1 -72 2 -101 0 -88 -6 11 -5 43 -10 70 -11
28 -2 64 -6 80 -10 27 -7 25 -8 -18 -9 -62 -1 -52 -21 11 -22 26 0 63 -7 82
-15 l35 -14 -38 6 c-26 3 -37 2 -32 -5 3 -6 13 -11 22 -11 27 0 97 -38 111
-60 12 -20 11 -20 -7 -11 -11 6 -32 15 -48 21 -24 8 -25 8 -9 -3 72 -46 116
-106 129 -174 7 -37 -8 -45 -17 -10 -8 34 -82 115 -125 136 -47 24 -74 29
-201 36 -121 7 -141 11 -192 36 -67 34 -58 41 46 38 53 -2 96 -1 96 3 0 8 -33
14 -141 27 -84 10 -115 25 -142 71 -21 35 -19 36 32 10 36 -18 151 -43 160
-34 4 4 -4 7 -80 28 -100 28 -161 85 -163 153 -1 48 26 93 56 93 17 0 19 -3
10 -12z m1894 -53 c-25 -85 -70 -127 -207 -196 -133 -66 -183 -105 -201 -155
-6 -19 -15 -34 -19 -34 -10 0 8 96 25 128 23 45 118 121 178 143 29 11 71 34
92 52 22 17 36 24 31 16 -26 -44 -54 -73 -94 -100 -47 -31 -42 -38 12 -16 51
22 96 66 124 121 31 61 63 109 70 102 3 -2 -2 -30 -11 -61z m792 47 c20 -4 22
-9 17 -36 l-6 -31 24 39 24 38 13 -31 c11 -28 11 -34 -7 -54 -11 -12 -26 -33
-34 -47 -18 -35 -16 -138 4 -176 10 -20 12 -35 6 -45 -14 -22 -10 -36 5 -16
19 25 26 21 26 -16 0 -20 12 -53 31 -82 26 -41 30 -55 25 -89 -6 -40 -5 -40 9
-16 8 14 14 36 15 49 0 20 2 22 16 10 39 -32 43 -129 6 -129 -10 0 -23 -5 -29
-11 -14 -14 -47 -4 -38 11 3 5 15 10 26 10 28 0 23 19 -8 26 -19 5 -30 2 -40
-11 -9 -14 -13 -15 -13 -4 0 9 -6 7 -18 -8 -36 -45 -172 -44 -206 2 -11 14
-15 16 -16 6 0 -11 -3 -10 -13 4 -10 13 -21 16 -40 11 -34 -8 -34 -22 -1 -30
21 -6 24 -10 15 -19 -9 -9 -16 -9 -31 1 -11 6 -26 12 -35 12 -29 0 -31 83 -3
117 15 18 28 16 28 -4 1 -10 7 -29 15 -43 14 -24 15 -24 9 16 -5 34 -1 48 25
89 17 27 31 61 31 75 0 35 10 44 26 22 15 -19 19 -5 5 17 -6 10 -4 25 6 45 20
37 21 142 3 177 -7 13 -22 34 -33 46 -18 20 -18 26 -7 54 l13 31 24 -38 c24
-38 24 -38 18 -9 -5 28 -3 32 27 41 18 6 40 9 48 6 8 -2 25 -7 38 -10z m741
-61 c41 -80 81 -124 138 -148 54 -22 60 -15 12 15 -37 24 -99 97 -99 117 0 3
16 -10 35 -29 21 -21 56 -42 89 -52 37 -12 74 -34 114 -70 64 -58 92 -110 92
-172 l0 -37 -19 40 c-25 56 -65 87 -201 155 -134 67 -181 111 -204 191 -19 62
-19 69 -6 69 5 0 28 -35 49 -79z m1904 41 c50 -85 -40 -190 -186 -217 -20 -4
-40 -11 -43 -17 -3 -5 5 -7 18 -4 12 3 41 8 63 11 21 4 56 15 77 26 49 25 51
24 34 -10 -24 -46 -60 -62 -174 -77 -59 -8 -108 -14 -109 -14 -2 0 -3 -3 -3
-7 0 -5 43 -6 96 -4 110 3 115 -5 30 -45 -34 -16 -69 -24 -106 -24 -105 -1
-227 -18 -268 -39 -45 -23 -120 -103 -128 -138 -9 -35 -24 -27 -17 10 13 68
57 128 129 174 16 11 15 11 -9 3 -16 -6 -37 -15 -48 -21 -18 -9 -19 -8 -10 9
11 21 86 62 114 62 9 0 19 5 22 11 5 7 -6 8 -32 5 l-38 -6 35 14 c19 8 56 15
82 15 63 1 73 21 11 22 -39 1 -43 3 -23 9 14 4 50 9 80 10 30 1 66 6 80 11 16
5 -15 7 -87 5 -62 -1 -111 -1 -109 2 10 9 95 23 200 31 62 6 128 17 147 25 24
11 26 14 9 10 -14 -3 -88 -9 -165 -13 -78 -5 -158 -15 -180 -24 -86 -31 -82
-31 -57 -8 13 11 54 30 90 41 55 17 82 20 147 15 135 -10 230 20 269 86 19 32
21 70 4 88 -11 10 -8 12 11 9 16 -2 32 -16 44 -36z m-4603 9 c12 -24 13 -58 1
-65 -9 -6 -51 56 -51 75 0 17 39 9 50 -10z m3870 10 c0 -5 -11 -28 -24 -52
l-25 -43 -7 28 c-9 36 10 76 36 76 11 0 20 -4 20 -9z m-2368 -36 c46 -10 96
-29 123 -47 50 -33 57 -48 20 -40 -14 2 -56 -6 -93 -18 l-69 -23 -66 22 c-41
14 -82 37 -109 60 l-43 39 60 11 c33 7 65 14 70 16 6 2 15 2 20 0 6 -1 45 -10
87 -20z m-1302 -28 c0 -12 -6 -29 -13 -38 -12 -16 -52 -35 -45 -22 3 5 13 27
23 50 18 44 35 48 35 10z m3446 16 c5 -15 15 -41 32 -76 6 -12 -41 13 -50 27
-11 17 -9 66 2 66 6 0 13 -8 16 -17z m-3323 -56 c5 -35 4 -38 -16 -35 -26 4
-34 36 -17 69 15 26 26 15 33 -34z m92 36 c-4 -10 -10 -28 -12 -41 -3 -12 -9
-25 -14 -28 -12 -7 -11 43 1 67 13 24 35 26 25 2z m3015 -2 c12 -24 13 -74 1
-67 -5 3 -11 16 -14 28 -2 13 -8 31 -12 41 -10 24 12 22 25 -2z m104 -13 c12
-34 2 -58 -25 -58 -15 0 -19 4 -15 16 3 9 6 29 6 46 0 36 21 34 34 -4z m-3539
-68 c0 -7 -6 -15 -12 -17 -8 -3 -13 4 -13 17 0 13 5 20 13 18 6 -3 12 -11 12
-18z m3855 0 c0 -11 -4 -20 -9 -20 -14 0 -23 18 -16 30 10 17 25 11 25 -10z
m-3655 -38 c9 -24 -8 -33 -42 -20 -24 9 -38 9 -57 0 -14 -6 -26 -8 -26 -4 1
15 36 50 55 54 26 5 62 -10 70 -30z m161 -263 c4 -69 3 -108 -3 -112 -16 -10
-31 60 -50 231 -16 149 -16 152 3 166 18 14 19 11 31 -82 7 -53 15 -145 19
-203z m65 270 c7 -13 6 -26 -2 -41 -12 -22 -12 -22 -19 -3 -19 54 -21 75 -5
69 9 -4 20 -15 26 -25z m3007 -18 c-10 -40 -12 -42 -25 -26 -17 25 -17 31 8
56 27 27 30 22 17 -30z m102 -6 c-1 -46 -27 -254 -40 -313 -6 -28 -16 -50 -21
-46 -13 8 -11 70 8 250 16 152 18 161 35 151 11 -7 18 -23 18 -42z m179 40
c16 -8 31 -23 34 -34 4 -18 2 -18 -20 -8 -18 8 -32 8 -56 -1 -35 -13 -51 -4
-41 22 5 14 30 31 52 35 2 1 16 -6 31 -14z m-3214 -83 c-5 -40 -12 -52 -36
-66 -48 -28 -50 -9 -7 60 22 35 43 63 45 60 3 -3 2 -27 -2 -54z m2873 -7 c23
-35 38 -67 34 -69 -4 -3 -22 2 -39 10 -23 12 -32 24 -37 52 -7 43 -8 72 -2 72
2 0 22 -29 44 -65z m-3143 -42 c-3 -12 -1 -24 4 -27 5 -4 12 -24 16 -45 5 -29
1 -49 -14 -80 -26 -50 -26 -51 2 -51 35 0 39 -10 12 -32 -13 -10 -34 -37 -46
-58 -13 -22 -26 -40 -31 -40 -12 0 -10 -68 3 -93 6 -12 23 -34 37 -49 14 -16
21 -28 14 -28 -21 0 -85 64 -100 100 -22 54 -16 144 14 209 41 89 46 112 28
139 -21 32 -59 27 -59 -8 0 -36 -26 -31 -41 7 -12 28 -11 34 7 57 19 24 26 26
90 24 66 -3 70 -4 64 -25z m3517 10 c22 -20 24 -76 3 -93 -19 -15 -29 -7 -30
23 0 32 -39 35 -59 5 -18 -28 -13 -51 28 -138 19 -41 26 -71 26 -118 0 -77
-16 -118 -64 -160 -45 -39 -70 -43 -34 -4 14 15 31 37 37 49 12 25 15 93 3 93
-4 0 -16 16 -27 36 -10 19 -32 46 -48 60 -23 20 -26 25 -13 30 9 4 26 4 37 1
19 -5 19 -4 5 18 -8 13 -20 44 -27 68 -9 38 -8 51 5 77 10 22 13 38 6 49 -8
16 -1 18 63 19 53 1 76 -3 89 -15z m-3077 -103 c3 -5 -4 -24 -15 -42 -11 -18
-20 -45 -20 -60 0 -40 -15 -34 -28 11 -14 45 -16 73 -4 54 5 -7 15 17 27 60
l19 72 7 -43 c5 -23 11 -46 14 -52z m2545 -35 c0 -17 2 -17 10 -5 14 21 13 -2
-2 -51 -13 -45 -28 -51 -28 -11 0 15 -9 42 -20 59 -15 26 -17 38 -10 59 6 14
10 37 11 52 1 20 6 14 19 -28 11 -30 19 -64 20 -75z m-2370 92 c0 -2 -13 -16
-30 -32 -16 -16 -30 -26 -30 -22 0 3 12 18 27 32 27 24 33 28 33 22z m2195
-51 c10 -17 14 -26 9 -21 -62 68 -68 77 -48 65 12 -8 30 -27 39 -44z m-3000 9
c0 -10 -6 -20 -12 -22 -8 -3 -13 5 -13 22 0 17 5 25 13 23 6 -3 12 -13 12 -23z
m398 -16 c-8 -29 -13 -23 -13 14 0 22 3 28 9 18 5 -7 6 -22 4 -32z m63 -15
c-4 -38 -15 -67 -34 -92 -26 -35 -27 -35 -30 -11 -1 13 4 42 13 64 l15 40 -4
-35 -5 -35 14 30 c8 17 14 45 15 63 0 17 5 32 11 32 8 0 10 -17 5 -56z m2848
9 c3 -27 11 -55 16 -63 7 -11 9 -5 5 20 l-5 35 15 -40 c9 -22 14 -51 13 -64
-3 -24 -4 -23 -31 12 -20 27 -30 54 -34 92 -7 69 12 75 21 8z m55 15 c0 -27
-2 -29 -8 -13 -5 11 -6 26 -4 33 8 21 13 13 12 -20z m411 7 c0 -26 -14 -33
-25 -15 -9 14 1 40 15 40 5 0 10 -11 10 -25z m-2802 -83 c10 -29 9 -36 -9 -55
-11 -12 -28 -35 -37 -52 l-16 -30 -8 40 c-5 22 -6 56 -2 75 l8 35 6 -45 6 -45
13 63 c14 66 21 69 39 14z m79 -95 c6 -52 22 -46 23 8 0 29 2 28 28 -20 25
-47 30 -50 67 -51 l40 0 0 -70 c0 -61 4 -76 28 -110 33 -48 34 -66 5 -112
l-21 -35 -10 24 c-5 13 -7 46 -4 73 4 42 2 47 -8 32 -11 -15 -14 -9 -20 43 -4
37 -3 67 4 79 14 26 14 42 1 42 -6 0 -19 -19 -30 -42 l-18 -41 -10 44 -10 44
-1 -40 c0 -22 9 -76 21 -120 27 -97 33 -266 12 -305 -12 -23 -13 -19 -14 47 0
40 -9 119 -20 175 -28 144 -34 218 -21 252 10 25 10 27 -3 17 -20 -17 -32 -59
-46 -161 -21 -157 -30 -208 -45 -244 -9 -20 -17 -36 -18 -36 -2 0 -1 26 1 58
3 39 -4 89 -22 162 -31 123 -31 138 -10 233 18 80 32 106 45 85 11 -17 11
-113 -1 -163 -13 -56 -4 -56 20 1 26 60 28 150 6 213 -23 63 -19 75 5 16 11
-27 23 -72 26 -98z m1677 77 c-10 -25 -17 -67 -17 -93 0 -50 28 -147 45 -158
8 -4 9 0 4 13 -12 30 -19 149 -12 179 11 43 31 14 50 -72 21 -95 20 -110 -10
-233 -18 -73 -25 -123 -22 -162 2 -32 3 -58 1 -58 -1 0 -9 16 -18 36 -15 36
-24 87 -45 244 -14 102 -26 144 -46 161 -13 10 -13 8 -4 -15 15 -41 12 -81
-15 -222 -14 -70 -25 -162 -25 -203 -1 -62 -3 -72 -12 -56 -6 11 -13 33 -14
50 -6 56 -5 176 1 186 16 24 45 153 44 191 -1 24 -3 34 -6 23 -15 -73 -12 -71
-35 -26 -11 22 -24 41 -29 41 -12 0 -11 -17 2 -42 7 -12 8 -42 4 -81 -7 -55
-8 -59 -20 -38 -10 20 -11 16 -8 -30 3 -30 1 -65 -4 -78 l-10 -24 -21 35 c-29
46 -28 64 6 112 23 34 27 49 27 110 l0 70 40 0 c37 1 42 4 67 51 26 48 28 49
28 20 0 -16 5 -37 10 -45 7 -11 10 -6 10 20 0 37 42 169 48 151 2 -6 -4 -32
-14 -57z m100 -41 c3 -4 6 14 7 38 l1 44 9 -35 c5 -19 6 -55 2 -80 -5 -39 -7
-42 -17 -26 -6 11 -23 34 -39 51 -15 18 -25 39 -22 46 2 8 10 28 16 44 l12 30
13 -53 c7 -30 15 -56 18 -59z m-3098 53 c59 -28 121 -96 130 -143 4 -19 14
-37 23 -40 48 -14 48 -15 81 -173 11 -52 23 -104 25 -115 5 -17 2 -16 -12 5
-59 81 -148 152 -209 165 -20 4 -12 -2 23 -20 68 -34 147 -121 205 -226 105
-190 145 -255 179 -291 55 -58 28 -45 -33 16 -31 31 -72 89 -97 137 -127 241
-227 339 -375 369 -92 19 -145 0 -159 -55 -3 -12 -5 -6 -6 15 -2 70 68 140
140 140 58 0 132 -27 177 -66 23 -19 42 -32 42 -27 0 15 -61 73 -94 90 -30 16
-30 16 -9 26 32 14 68 1 115 -41 27 -24 39 -30 35 -18 -12 31 -51 75 -67 75
-9 1 -22 16 -28 35 -15 40 -64 96 -84 96 -8 -1 -7 -4 4 -11 16 -9 68 -87 68
-102 0 -18 -17 -3 -40 34 -29 47 -94 89 -136 88 l-29 -1 32 -8 c53 -12 123
-81 123 -120 -1 -8 -8 -1 -17 15 -25 48 -44 64 -84 75 -45 12 -97 -5 -141 -47
l-28 -27 0 33 c0 41 21 82 60 115 42 35 114 36 186 2z m313 10 c9 -11 8 -18
-5 -31 -15 -15 -19 -15 -32 -1 -17 17 -10 46 11 46 8 0 20 -6 26 -14z m3708
-2 c3 -8 -1 -22 -9 -30 -13 -14 -17 -14 -32 1 -13 13 -14 20 -5 31 15 19 38
18 46 -2z m460 -16 c40 -43 53 -69 53 -109 l0 -33 -33 32 c-42 41 -89 55 -137
42 -40 -11 -58 -28 -83 -75 -9 -16 -16 -24 -17 -16 -1 42 66 108 125 122 l30
7 -31 1 c-41 1 -114 -47 -139 -92 -18 -34 -35 -48 -35 -29 0 16 60 102 71 102
7 0 9 3 6 7 -10 9 -65 -45 -84 -82 -9 -16 -36 -47 -60 -68 -23 -21 -43 -46
-43 -54 0 -10 13 -4 39 20 45 41 72 51 108 42 l26 -6 -24 -16 c-36 -24 -99
-86 -99 -97 0 -5 12 2 28 16 72 68 199 97 260 59 43 -27 72 -78 71 -121 -1
-21 -3 -27 -6 -15 -14 55 -67 74 -159 55 -153 -32 -245 -123 -375 -369 -27
-51 -67 -107 -102 -143 -69 -71 -87 -73 -23 -3 25 26 68 91 97 144 112 206
141 251 199 305 34 31 82 63 112 76 29 11 40 18 23 15 -77 -15 -182 -90 -226
-161 -11 -19 -23 -34 -24 -32 -6 6 57 273 67 285 5 6 19 13 30 15 14 2 26 18
39 52 36 95 125 156 230 156 49 0 58 -3 86 -32z m-3532 -104 c1 -49 5 -121 9
-160 6 -52 5 -77 -4 -95 -12 -22 -12 -23 3 -10 10 7 17 21 17 29 0 12 3 13 11
5 20 -20 -24 -84 -76 -110 -34 -18 -123 -21 -151 -5 -18 11 -18 11 4 12 74 1
129 82 117 171 -4 27 -4 49 -1 49 9 0 29 -42 41 -90 l12 -45 10 36 c13 45 4
99 -28 164 -15 29 -23 61 -20 75 3 21 6 18 17 -20 l12 -45 1 68 c1 50 4 68 14
64 8 -3 12 -31 12 -93z m109 59 c-7 -21 -13 -53 -14 -71 0 -20 -4 -31 -10 -27
-15 9 -12 46 10 93 24 52 32 55 14 5z m2307 -30 l1 -68 12 45 c12 42 13 43 18
17 4 -20 -3 -44 -23 -81 -31 -58 -41 -137 -21 -172 11 -17 11 -17 12 6 0 27
35 110 45 110 4 0 4 -22 0 -48 -12 -88 42 -172 112 -172 25 -1 26 -2 9 -12
-28 -16 -117 -13 -151 5 -52 26 -96 90 -76 110 8 8 11 7 11 -5 0 -8 6 -21 14
-28 13 -10 13 -7 3 19 -8 23 -8 51 1 118 8 56 10 104 4 133 -8 45 1 90 20 90
4 0 8 -30 9 -67z m-101 -40 c0 -43 -17 -32 -23 15 -3 26 -8 56 -11 67 -4 11 3
2 14 -20 11 -22 20 -50 20 -62z m-2496 -45 c2 -100 22 -85 28 20 l3 44 24 -33
24 -33 -28 -52 c-20 -38 -36 -54 -54 -57 -14 -3 -27 -4 -28 -3 -1 1 4 20 12
43 11 31 12 55 5 100 -12 73 -12 95 2 63 6 -14 11 -55 12 -92z m2770 60 c-4
-29 -8 -62 -9 -73 -2 -12 3 -39 11 -60 7 -22 12 -40 11 -41 -6 -6 -57 10 -57
18 0 6 -11 23 -25 40 -31 37 -31 55 0 93 l25 30 0 -52 c0 -28 3 -58 6 -67 11
-29 20 -17 16 20 -4 36 14 144 25 144 3 0 2 -24 -3 -52z m-2415 -143 c1 -78
-3 -109 -18 -140 l-18 -40 4 140 c2 77 7 160 10 185 l7 45 6 -45 c4 -25 8 -90
9 -145z m2073 -25 l4 -154 -18 39 c-19 43 -24 169 -11 275 6 50 7 52 14 25 4
-16 9 -100 11 -185z m-2468 153 c9 -60 7 -108 -7 -127 -11 -16 -15 -8 -30 60
-16 73 -16 78 1 90 25 20 29 18 36 -23z m2868 23 c17 -12 17 -17 1 -90 -15
-68 -19 -76 -30 -60 -14 19 -17 81 -7 133 7 34 11 36 36 17z m-3042 -36 c0
-22 -19 -30 -42 -18 -23 11 -23 34 -1 47 21 12 43 -3 43 -29z m-250 15 c0 -8
-4 -15 -10 -15 -5 0 -10 7 -10 15 0 8 5 15 10 15 6 0 10 -7 10 -15z m3483 3
c7 -23 -4 -38 -29 -38 -17 0 -24 6 -24 18 0 10 3 22 7 25 11 12 41 8 46 -5z
m212 3 c3 -5 1 -12 -5 -16 -5 -3 -10 1 -10 9 0 18 6 21 15 7z m-3391 -27 c9
-22 8 -26 -5 -18 -8 4 -9 -1 -4 -17 11 -34 44 -79 57 -76 6 1 14 -10 19 -25 4
-16 4 -28 1 -28 -3 0 -26 19 -49 42 -39 38 -43 47 -43 90 0 47 12 63 24 32z
m3096 -32 c0 -44 -4 -52 -46 -92 l-45 -45 3 30 c2 17 8 29 15 28 14 -3 47 41
58 76 5 16 4 21 -4 17 -13 -8 -14 -4 -5 18 12 31 24 15 24 -32z m-3218 -6 c-4
-34 13 -54 94 -106 71 -47 99 -81 81 -99 -8 -8 -5 -19 12 -42 36 -48 12 -104
-36 -84 -12 5 -14 9 -5 12 16 6 15 56 -2 97 -9 22 -34 45 -79 74 -35 22 -74
53 -86 68 -23 29 -28 83 -9 102 19 19 33 8 30 -22z m3346 22 c17 -17 15 -69
-4 -96 -8 -12 -48 -44 -88 -71 -59 -40 -75 -56 -85 -89 -8 -23 -11 -55 -7 -72
5 -28 4 -31 -16 -28 -14 2 -26 13 -32 29 -7 21 -4 32 15 58 17 23 20 34 11 43
-18 18 3 44 81 97 85 57 99 72 97 103 -4 42 5 49 28 26z m-555 -173 c-19 -159
29 -249 139 -265 l43 -6 -32 -17 c-43 -23 -120 -22 -160 2 -39 24 -79 91 -98
165 -8 31 -15 62 -15 68 0 20 55 -66 73 -112 15 -41 59 -100 74 -100 3 0 -2 9
-11 19 -36 39 -45 91 -46 247 0 107 4 154 13 163 18 18 30 -77 20 -164z
m-2235 24 c4 -165 -2 -207 -35 -256 -18 -27 -20 -33 -7 -23 30 24 42 42 61 90
17 43 73 132 73 114 -1 -5 -7 -35 -14 -67 -18 -75 -57 -140 -100 -166 -41 -26
-114 -28 -159 -4 l-32 17 43 6 c107 16 158 108 140 255 -9 75 0 177 16 172 7
-2 12 -50 14 -138z m892 84 c0 -5 -9 -23 -20 -41 -28 -46 -25 -53 6 -11 29 41
66 64 88 56 14 -5 14 -10 1 -41 -20 -47 -18 -69 2 -31 15 28 51 64 64 65 3 0
4 -12 2 -27 -5 -28 -5 -28 11 -7 23 32 92 30 113 -3 20 -30 27 -24 13 11 l-10
27 30 -17 c16 -10 35 -31 42 -48 6 -16 13 -25 15 -19 2 6 -3 28 -11 48 -20 46
-20 45 2 45 27 -1 60 -23 87 -60 31 -41 33 -34 4 15 -32 53 -15 57 56 13 91
-58 125 -104 125 -170 0 -18 4 -39 9 -46 8 -14 21 60 21 126 0 41 13 41 53 -4
79 -87 91 -144 58 -268 -16 -61 -19 -66 -25 -41 -4 15 -4 75 0 134 6 100 5
107 -15 131 -20 22 -21 22 -12 3 6 -12 11 -34 11 -50 l0 -28 -16 30 c-26 50
-36 53 -18 5 9 -25 16 -73 16 -107 0 -35 3 -63 7 -63 10 0 31 -100 32 -150 0
-45 1 -44 29 40 16 47 34 93 40 102 5 10 10 26 11 35 0 13 3 11 10 -7 14 -34
2 -127 -22 -175 -11 -22 -17 -31 -13 -20 45 152 42 213 -3 70 -31 -97 -32
-103 -24 -211 5 -61 13 -119 20 -130 12 -18 12 -18 7 1 -15 63 -17 90 -11 140
4 30 11 53 15 50 4 -2 15 -32 24 -65 14 -51 16 -84 10 -199 -6 -118 -4 -143
10 -171 9 -18 15 -35 13 -37 -11 -10 -75 49 -94 87 -20 39 -23 59 -23 175 0
132 -8 186 -34 220 -12 17 -12 12 1 -25 11 -33 15 -75 13 -160 -6 -207 5 -472
20 -500 18 -34 -7 -31 -39 5 -35 40 -36 43 -19 82 6 15 12 82 13 148 1 66 5
161 10 211 6 69 5 96 -6 115 -13 23 -14 21 -25 -41 -9 -48 -12 -56 -13 -30 0
19 -13 77 -27 129 -26 90 -26 96 -11 142 8 27 13 49 11 49 -13 0 -55 -117 -61
-167 -4 -42 -8 -52 -14 -38 -17 44 -9 105 21 165 17 33 30 67 30 77 -1 11 -6
6 -14 -13 -18 -40 -40 -57 -26 -19 13 34 13 106 -1 125 -8 12 -10 10 -6 -10 3
-14 1 -34 -3 -45 -5 -11 -9 -14 -9 -7 -1 7 -21 47 -45 88 -30 51 -46 70 -50
59 -3 -8 -1 -27 4 -41 15 -40 12 -40 -24 -5 -19 18 -36 45 -39 59 -3 15 -13
36 -21 47 -13 18 -14 16 -1 -20 27 -77 16 -84 -45 -27 -22 22 -40 38 -40 37 0
-1 7 -22 15 -45 17 -49 17 -50 8 -50 -15 1 -47 54 -54 89 l-7 36 -1 -32 c-2
-56 -31 -34 -31 23 0 13 -4 24 -10 24 -5 0 -10 -11 -10 -24 0 -57 -29 -79 -31
-23 l-1 32 -7 -36 c-7 -34 -39 -88 -53 -89 -4 0 -2 15 4 33 5 17 12 41 15 52
5 19 5 19 -10 -1 -9 -11 -33 -33 -53 -49 l-37 -28 7 37 c4 21 9 45 12 54 3 9
-2 6 -10 -8 -8 -14 -15 -32 -16 -41 0 -14 -70 -91 -70 -77 0 4 4 18 10 32 5
14 7 33 4 41 -4 11 -20 -8 -50 -59 -24 -41 -44 -81 -44 -87 0 -7 -3 -9 -7 -5
-4 4 -6 23 -5 44 2 27 0 33 -8 22 -13 -20 -13 -91 0 -126 17 -44 4 -38 -19 8
-13 27 -21 35 -21 23 1 -11 14 -45 30 -75 31 -56 39 -122 20 -165 -7 -17 -9
-16 -9 10 -2 55 -48 195 -65 195 -2 0 3 -22 12 -49 15 -47 14 -53 -8 -127 -12
-42 -26 -100 -29 -128 l-7 -51 -10 65 c-11 65 -11 65 -23 35 -10 -22 -11 -53
-5 -115 4 -47 8 -139 9 -205 1 -66 7 -135 13 -154 13 -38 7 -54 -33 -91 l-28
-25 8 40 c4 22 7 76 6 120 0 44 4 108 10 142 6 42 6 100 -1 176 -10 108 -8
135 16 232 3 12 -3 8 -13 -10 -14 -24 -18 -63 -23 -190 -5 -160 -11 -185 -49
-229 -9 -10 -28 -24 -43 -32 l-27 -14 16 37 c12 31 14 62 8 178 -6 123 -4 147
13 202 16 51 17 63 6 67 -9 3 -14 -2 -14 -13 0 -10 -9 -29 -20 -42 -21 -26
-26 -19 -9 13 6 11 14 41 18 67 l7 46 21 -41 c12 -22 25 -69 30 -105 l7 -64 7
94 c7 87 5 100 -22 184 -17 49 -28 92 -24 95 8 8 10 3 43 -93 30 -88 31 -89
31 -45 1 51 22 150 32 150 4 0 7 30 7 68 0 41 6 81 16 105 9 20 14 37 11 37
-2 0 -13 -17 -24 -37 -20 -38 -20 -38 -21 -10 0 16 5 38 11 50 9 19 8 19 -12
-3 -20 -24 -21 -31 -15 -131 4 -59 4 -119 0 -134 -6 -25 -9 -20 -25 41 -25 93
-24 142 4 192 26 47 82 112 97 112 5 0 10 -19 11 -42 0 -24 4 -63 8 -88 6 -38
9 -41 14 -20 3 14 8 42 11 64 7 54 27 79 104 131 64 42 92 54 92 38z m-1081
-70 c-1 -47 -1 -48 -11 -16 -6 18 -8 39 -5 47 11 29 17 17 16 -31z m2593 -10
l-10 -38 -1 50 c-1 36 2 46 10 38 8 -8 8 -22 1 -50z m-2622 -4 c0 -11 5 -29
10 -39 6 -12 7 -21 0 -25 -5 -3 -12 7 -16 22 -3 15 -8 36 -11 46 -2 9 0 17 6
17 6 0 11 -9 11 -21z m2657 4 c-3 -10 -8 -31 -11 -46 -4 -15 -11 -25 -16 -22
-7 4 -6 13 0 25 5 10 10 28 10 39 0 12 5 21 11 21 6 0 8 -8 6 -17z m-2680 -48
c5 -30 6 -55 2 -55 -9 0 -14 18 -24 73 -3 20 -2 37 3 37 5 0 13 -25 19 -55z
m2707 13 c-8 -50 -23 -85 -24 -53 0 38 13 95 21 95 5 0 6 -19 3 -42z m-2754
-10 c6 -24 13 -49 15 -55 5 -15 -31 -18 -39 -4 -4 5 -9 30 -12 55 -6 38 -4 46
9 46 11 0 20 -15 27 -42z m2816 -4 c-7 -56 -12 -64 -36 -64 -16 0 -18 4 -10
28 4 15 11 39 14 55 4 16 13 27 23 27 13 0 15 -8 9 -46z m-3240 -121 c-6 -6
-24 54 -31 102 -3 26 2 17 15 -29 11 -38 19 -71 16 -73z m3655 75 c-7 -29 -16
-60 -22 -68 -8 -12 -9 -9 -5 10 4 14 12 46 18 72 15 65 23 53 9 -14z m-3867
-42 c42 -43 83 -106 69 -106 -19 0 -74 42 -83 63 -8 17 -8 13 -4 -18 4 -32 3
-36 -6 -22 -6 9 -15 36 -20 60 -9 42 -9 42 -7 -16 1 -31 -1 -57 -5 -57 -25 0
-52 132 -32 153 10 10 43 -11 88 -57z m476 44 c20 -20 28 -60 11 -60 -5 0 -14
7 -21 15 -25 30 -55 -27 -32 -61 4 -6 40 -28 79 -48 74 -37 96 -59 108 -108
10 -38 -35 -84 -65 -68 -26 14 -26 30 0 23 23 -6 35 16 26 51 -6 24 -29 37
-103 56 -57 14 -100 53 -113 100 -6 21 -24 53 -40 70 -17 18 -30 34 -30 36 0
8 42 4 61 -6 14 -8 25 -7 41 5 30 20 54 19 78 -5z m3178 5 c16 -12 27 -13 41
-5 20 10 61 14 61 6 0 -3 -14 -20 -30 -38 -17 -18 -35 -50 -40 -70 -10 -36
-54 -82 -87 -92 -10 -3 -37 -10 -60 -16 -50 -13 -73 -33 -73 -64 0 -31 22 -50
38 -34 9 9 12 9 12 0 0 -18 -33 -32 -53 -21 -53 30 -40 102 26 148 23 15 52
31 64 35 60 19 93 77 59 105 -10 9 -16 8 -26 -4 -17 -21 -30 -19 -30 5 0 25
34 60 58 60 10 0 27 -7 40 -15z m491 -48 c1 -31 -24 -97 -36 -97 -4 0 -7 28
-6 62 2 63 2 63 -7 16 -12 -67 -32 -98 -24 -38 l5 45 -15 -32 c-13 -29 -71
-71 -82 -60 -3 2 12 26 32 53 42 55 47 60 89 92 27 22 30 22 36 5 4 -10 8 -31
8 -46z m-3278 -13 c-7 -24 -10 -26 -16 -11 -4 10 -2 24 5 32 18 21 21 14 11
-21z m2330 -10 c-9 -17 -10 -17 -11 -2 0 9 -3 25 -6 35 -6 17 -6 17 11 2 13
-13 15 -21 6 -35z m-2359 -53 c-4 -11 -8 -9 -15 7 -5 11 -6 29 -2 39 7 16 9
15 15 -7 4 -14 4 -31 2 -39z m2398 24 c0 -26 -16 -42 -22 -23 -7 19 3 58 13
52 5 -3 9 -16 9 -29z m-2130 -55 c0 -25 -9 -63 -20 -85 l-20 -40 5 55 c11 110
17 143 26 129 5 -8 9 -34 9 -59z m1874 -59 l6 -66 -20 40 c-20 40 -26 108 -13
142 9 23 18 -18 27 -116z m-2323 109 c10 -6 19 -19 19 -29 0 -17 -3 -18 -25
-8 -14 7 -25 20 -25 30 0 20 4 21 31 7z m149 -19 c0 -37 -16 -49 -24 -18 -9
35 -7 47 9 47 10 0 15 -10 15 -29z m2470 17 c0 -27 -13 -58 -21 -52 -16 9 -10
64 6 64 8 0 15 -6 15 -12z m150 -5 c0 -10 -11 -23 -25 -30 -22 -10 -25 -9 -25
7 0 11 8 24 18 29 25 15 32 13 32 -6z m-2700 -29 c0 -39 -15 -39 -22 1 -4 20
0 28 20 34 1 1 2 -15 2 -35z m40 0 c0 -19 -4 -33 -9 -30 -10 7 -20 53 -13 61
14 13 22 2 22 -31z m2540 7 c0 -17 -4 -33 -10 -36 -6 -4 -10 8 -10 29 0 20 5
36 10 36 6 0 10 -13 10 -29z m-2982 -9 c2 -12 -1 -22 -6 -22 -15 0 -34 28 -27
40 10 17 30 6 33 -18z m1715 2 c3 -16 0 -28 -10 -31 -19 -8 -22 -2 -16 30 7
34 19 35 26 1z m1309 1 c-7 -37 -22 -41 -22 -6 0 20 5 31 14 31 9 0 12 -8 8
-25z m414 14 c3 -6 -1 -18 -10 -27 -15 -15 -18 -15 -26 -2 -5 9 -5 19 2 27 13
16 25 17 34 2z m-1863 -36 c-3 -21 -12 -35 -25 -39 -30 -9 -30 -1 -1 39 14 20
27 36 28 35 2 -2 0 -17 -2 -35z m290 -12 c13 -23 15 -31 5 -31 -23 0 -35 14
-41 49 -8 39 7 32 36 -18z m-203 18 c0 -5 -7 -9 -15 -9 -9 0 -12 6 -9 15 6 15
24 11 24 -6z m99 -8 c-15 -5 -22 6 -14 19 6 9 10 9 16 -1 5 -8 4 -15 -2 -18z
m-259 -11 c0 -11 -7 -20 -15 -20 -13 0 -14 4 -5 20 6 11 13 20 15 20 3 0 5 -9
5 -20z m419 -2 c12 -15 11 -18 -3 -18 -10 0 -16 8 -16 22 0 12 1 19 3 17 1 -2
9 -12 16 -21z m-2313 3 c-3 -5 12 -11 33 -15 56 -9 181 -104 181 -139 0 -2
-20 16 -45 40 -25 24 -51 43 -58 43 -6 0 3 -12 21 -26 39 -31 62 -73 61 -111
0 -26 -1 -27 -12 -8 -7 11 -32 41 -57 66 -46 48 -111 76 -150 65 -11 -4 -30
-9 -41 -12 -14 -4 -19 -2 -15 5 4 6 18 11 32 11 13 0 24 5 24 10 0 13 -13 13
-64 -2 -52 -15 -63 -24 -37 -33 37 -11 20 -65 -20 -65 -23 0 -49 37 -49 70 0
35 46 78 101 95 50 16 103 19 95 6z m138 -24 c22 -12 41 -28 44 -35 2 -8 -12
-3 -35 11 -22 14 -59 32 -84 41 l-44 17 40 -6 c22 -4 58 -16 79 -28z m1341
-14 c-4 -35 -1 -66 14 -113 23 -72 22 -91 -2 -33 -20 52 -30 124 -22 162 10
48 18 37 10 -16z m2638 27 c-29 -10 -66 -28 -83 -40 -16 -12 -30 -17 -30 -11
0 22 100 70 145 70 11 0 -4 -8 -32 -19z m162 6 c64 -20 105 -60 105 -103 0
-61 -79 -85 -88 -25 -2 14 4 23 18 27 27 9 17 18 -36 33 -51 15 -64 15 -64 2
0 -5 11 -10 24 -10 14 0 28 -5 32 -11 4 -7 -1 -9 -15 -5 -11 3 -30 8 -41 12
-39 11 -104 -17 -150 -65 -25 -25 -50 -55 -57 -66 -11 -19 -12 -18 -12 8 -1
38 22 80 61 111 18 14 27 26 21 26 -7 0 -33 -19 -58 -43 -25 -24 -45 -39 -45
-33 0 31 150 136 195 136 8 0 15 5 15 10 0 14 39 12 95 -4z m-3030 -113 c-3
-23 -19 -67 -34 -98 -24 -47 -25 -53 -8 -38 20 18 20 18 7 -7 -7 -14 -19 -33
-28 -42 -8 -10 -10 -18 -4 -18 5 0 21 13 34 28 12 15 26 27 30 27 3 0 18 11
32 24 l25 24 -25 -84 c-15 -46 -35 -102 -46 -124 l-21 -40 22 19 c12 11 37 51
56 89 33 66 35 68 35 35 0 -90 -60 -185 -122 -195 -31 -4 -46 0 -87 27 -28 17
-69 34 -91 37 -47 7 -51 19 -13 34 21 8 40 6 79 -6 46 -14 56 -15 86 -2 41 17
73 65 83 122 l8 40 -34 -50 c-24 -35 -45 -53 -69 -61 -52 -17 -65 -7 -35 28
38 45 49 101 33 168 l-13 56 28 23 c15 13 38 40 50 62 l22 39 3 -38 c2 -20 1
-56 -3 -79z m1769 9 c22 -16 25 -25 18 -39 -34 -62 -20 -157 30 -210 l21 -23
-36 0 c-30 0 -45 8 -77 40 -27 27 -40 49 -40 67 l0 28 31 -38 c17 -20 35 -37
41 -37 6 0 4 8 -4 18 -9 9 -21 28 -28 42 -13 25 -13 25 8 6 18 -15 16 -9 -9
38 -25 46 -32 72 -36 139 l-5 82 30 -46 c16 -25 41 -55 56 -67z m-2249 4 c18
-61 19 -103 0 -136 -10 -19 -15 -21 -19 -10 -4 13 -24 116 -40 209 l-6 35 25
-24 c14 -13 32 -46 40 -74z m2694 -21 c-25 -142 -27 -146 -44 -115 -18 32 -18
75 -1 135 12 39 53 101 62 92 1 -1 -6 -52 -17 -112z m-3077 -27 c43 -54 74
-98 68 -98 -5 0 -10 3 -10 8 -1 4 -22 30 -47 57 -36 39 -41 42 -23 15 13 -19
39 -55 58 -79 26 -32 30 -41 15 -32 -33 17 -105 117 -153 211 -32 62 -8 41 92
-82z m654 19 c-16 -39 -50 -66 -99 -77 l-32 -8 38 -1 c47 -1 71 11 122 63 l40
41 3 -28 c5 -40 -28 -100 -59 -108 -14 -3 -52 -2 -84 3 -71 13 -120 0 -165
-42 -18 -17 -35 -29 -37 -26 -3 2 4 24 15 49 24 55 71 91 138 106 60 14 109
56 121 104 l8 32 3 -37 c2 -20 -4 -52 -12 -71z m2147 14 c19 -21 45 -34 85
-42 68 -16 117 -56 137 -114 14 -42 10 -62 -6 -33 -5 9 -26 27 -47 40 -33 20
-49 23 -142 23 l-105 0 -18 37 c-10 21 -17 50 -15 65 l3 28 40 -41 c50 -51 75
-64 117 -63 31 1 32 1 7 8 -69 21 -110 77 -108 148 l1 38 11 -33 c7 -17 25
-45 40 -61z m700 33 c-48 -85 -110 -170 -139 -189 -25 -16 -24 -13 11 31 58
72 63 85 13 32 -63 -69 -66 -59 -5 19 62 79 139 165 144 160 1 -2 -9 -26 -24
-53z m-1806 35 c8 -8 16 -7 31 2 18 11 27 10 56 -4 20 -9 36 -22 36 -29 0 -10
2 -10 9 0 4 7 24 14 44 15 20 1 37 5 37 10 0 4 11 7 25 7 21 0 25 -5 25 -30 0
-36 13 -39 28 -7 9 18 11 11 11 -45 1 -37 -4 -79 -10 -95 -5 -15 -10 -56 -10
-91 l0 -64 -25 33 -24 33 0 -40 0 -39 -23 39 c-30 53 -44 56 -39 9 l4 -38 -31
35 c-17 19 -36 50 -43 68 -11 30 -28 44 -28 22 0 -21 -16 -9 -34 25 -11 19
-22 35 -25 35 -3 0 -17 -17 -30 -38 -14 -20 -26 -31 -29 -24 -7 21 -17 13 -30
-20 -7 -18 -26 -49 -43 -68 l-31 -35 4 36 c5 49 -18 41 -43 -15 l-19 -41 0 44
0 45 -24 -33 -25 -33 0 64 c0 35 -5 76 -10 91 -6 16 -11 58 -10 95 0 56 2 63
11 45 15 -32 28 -29 28 7 0 25 4 30 25 30 14 0 25 -3 25 -7 0 -5 17 -9 37 -10
20 -1 40 -8 44 -15 6 -9 9 -10 9 -1 0 14 47 42 71 43 8 0 20 -5 26 -11z
m-1532 -19 c8 -13 -19 -40 -39 -40 -19 0 -29 17 -22 35 6 17 52 20 61 5z
m3150 -15 c0 -25 -30 -31 -51 -11 -20 21 -8 38 24 34 19 -2 27 -9 27 -23z
m-2869 -42 c4 -21 2 -39 -5 -46 -15 -15 -17 -10 -24 45 -5 39 -4 46 8 42 8 -3
17 -22 21 -41z m2560 21 c-3 -9 -6 -29 -6 -45 0 -34 -16 -39 -25 -8 -10 29 3
69 21 69 11 0 14 -5 10 -16z m-2516 -20 c0 -8 -4 -14 -10 -14 -5 0 -10 9 -10
21 0 11 5 17 10 14 6 -3 10 -13 10 -21z m70 21 c0 -10 -41 -25 -52 -19 -8 5
-5 10 8 15 22 9 44 11 44 4z m2346 -11 c18 -14 18 -15 -6 -8 -31 8 -50 24 -29
24 8 0 24 -7 35 -16z m44 -9 c0 -8 -4 -15 -10 -15 -5 0 -10 7 -10 15 0 8 5 15
10 15 6 0 10 -7 10 -15z m-2044 -60 c-10 -24 -22 -47 -27 -51 -5 -3 0 18 11
46 11 28 20 54 20 57 0 3 3 3 6 0 4 -4 -1 -27 -10 -52z m1623 -2 c11 -29 18
-53 15 -53 -7 0 -44 82 -44 99 0 22 6 11 29 -46z m-1523 -83 c-14 -29 -14 -29
6 -19 11 6 26 25 33 42 10 23 14 26 14 12 1 -28 -33 -99 -59 -125 -17 -17 -19
-24 -10 -30 17 -11 -2 -135 -24 -159 -24 -26 -19 -37 5 -15 12 10 28 33 35 49
10 25 14 27 19 13 9 -22 -35 -99 -68 -121 -13 -8 -42 -20 -64 -26 -38 -10 -88
-42 -105 -66 -17 -23 -7 -67 21 -96 26 -25 27 -29 10 -29 -35 0 -59 36 -59 88
1 62 23 99 90 154 30 24 68 65 83 90 26 41 30 61 39 170 6 76 16 136 26 158
l17 35 3 -48 c2 -28 -3 -60 -12 -77z m1429 59 c3 -13 9 -74 14 -135 5 -68 15
-123 25 -143 23 -44 81 -106 122 -132 40 -25 64 -74 64 -133 0 -47 -27 -86
-60 -86 -16 0 -14 4 11 29 59 59 23 134 -78 161 -54 15 -104 57 -129 108 -11
25 -13 37 -5 45 8 8 11 7 11 -5 0 -19 47 -78 61 -78 6 0 1 10 -10 21 -26 28
-50 157 -32 169 10 6 9 12 -7 28 -27 27 -48 69 -56 112 l-7 35 15 -32 c8 -17
23 -36 35 -42 19 -11 19 -10 5 16 -7 16 -14 50 -14 78 0 46 1 48 14 29 8 -11
17 -32 21 -45z m-2580 -32 c-8 -19 -17 -62 -20 -94 -3 -37 -2 -49 3 -33 7 21
10 15 16 -34 4 -33 10 -65 13 -71 3 -8 -9 -14 -31 -17 l-36 -4 0 46 c0 66 18
157 42 207 24 52 35 52 13 0z m905 -4 c0 -25 -3 -43 -7 -39 -10 10 -14 38 -8
64 9 36 15 25 15 -25z m1920 2 c0 -11 -5 -27 -10 -35 -7 -11 -10 -1 -10 35 0
36 3 46 10 35 5 -8 10 -24 10 -35z m914 -40 c10 -27 20 -86 23 -130 l6 -81
-37 4 c-24 3 -36 9 -33 17 3 6 9 38 13 71 6 49 9 55 15 34 5 -15 6 -1 3 35 -3
33 -12 75 -20 94 -18 42 -18 51 0 26 7 -11 21 -42 30 -70z m-3296 50 c16 -34
15 -55 -1 -55 -20 0 -37 21 -37 45 0 41 22 46 38 10z m2061 -83 c17 -32 12
-39 -9 -13 -11 13 -20 32 -20 42 0 10 -3 18 -7 18 -21 -3 -23 4 -6 32 l18 30
6 -44 c4 -25 12 -54 18 -65z m799 79 c4 -25 -14 -51 -34 -51 -17 0 -18 21 -2
55 13 30 32 28 36 -4z m-616 -56 c7 -58 43 -114 86 -132 30 -13 40 -12 86 2
39 12 58 14 79 6 39 -15 34 -27 -14 -34 -22 -3 -59 -18 -82 -33 -61 -41 -121
-39 -159 6 -32 39 -58 109 -58 158 0 33 2 31 35 -35 19 -38 44 -78 56 -89 l22
-19 -21 40 c-11 22 -31 78 -45 124 -23 74 -24 81 -8 67 10 -10 21 -36 23 -61z
m-2818 51 c31 -13 71 -54 62 -64 -3 -2 -14 6 -26 18 -25 25 -62 40 -98 39
l-27 -1 25 -7 c53 -16 88 -41 104 -75 23 -48 20 -52 -10 -17 -14 17 -33 31
-42 31 -14 0 -13 -3 4 -18 20 -16 54 -72 54 -88 0 -4 -9 2 -20 14 -29 31 -32
27 -11 -10 10 -18 22 -50 25 -70 7 -37 6 -38 -24 -38 -27 0 -30 3 -30 33 0 17
-10 47 -21 66 -20 33 -20 35 -3 48 19 14 19 15 -13 32 -13 6 -23 18 -23 26 0
19 -49 75 -65 75 -8 0 -17 5 -20 10 -10 15 120 12 159 -4z m4131 4 c-3 -5 -12
-10 -19 -10 -17 0 -52 -39 -65 -72 -6 -16 -17 -28 -25 -28 -23 0 -30 -20 -11
-34 16 -11 16 -15 -4 -47 -11 -19 -21 -49 -21 -66 0 -30 -3 -33 -30 -33 -30 0
-31 1 -24 38 3 20 15 53 26 72 l20 35 -26 -24 c-14 -14 -26 -21 -26 -17 0 18
34 73 58 94 21 18 23 21 7 16 -11 -4 -32 -18 -47 -32 -26 -24 -27 -24 -21 -3
9 34 58 78 100 89 33 9 34 10 11 11 -36 1 -72 -13 -98 -39 -12 -12 -23 -20
-26 -18 -8 9 31 51 60 64 36 16 170 19 161 4z m-2108 -63 c18 -34 37 -78 42
-97 9 -35 9 -35 10 15 l1 50 25 -37 c14 -21 28 -58 31 -82 8 -53 24 -51 25 2
1 20 5 48 9 62 6 19 8 11 9 -33 1 -59 13 -97 32 -97 6 0 7 6 1 16 -6 11 -5 35
4 66 7 28 10 57 8 66 -3 10 2 4 12 -12 16 -29 16 -100 -1 -151 -6 -20 -6 -20
9 -1 25 31 49 126 42 171 -8 54 8 25 24 -43 7 -30 10 -72 7 -95 l-5 -42 14 30
c7 17 13 46 14 65 1 30 2 32 11 16 8 -12 8 -33 2 -67 -11 -55 -1 -66 15 -16
10 31 10 30 11 -23 0 -35 -10 -90 -29 -150 -27 -89 -29 -92 -29 -50 0 25 3 62
8 82 5 21 5 36 1 33 -22 -13 -33 -113 -26 -236 6 -112 4 -138 -15 -211 -15
-62 -19 -98 -14 -140 3 -32 4 -58 1 -58 -3 0 -17 22 -30 49 -24 47 -24 50 -10
97 16 49 14 188 -4 394 -11 117 -23 49 -32 -170 -6 -179 -19 -261 -33 -215
-18 58 -57 248 -57 274 0 16 4 41 10 56 6 15 6 24 1 20 -5 -3 -17 -26 -27 -50
-14 -37 -16 -64 -11 -143 3 -53 9 -112 13 -129 4 -20 2 -33 -3 -33 -12 0 -40
71 -46 115 -3 20 -4 15 -6 -18 0 -26 6 -76 15 -111 15 -60 15 -68 -4 -142 -18
-73 -21 -77 -28 -49 -5 17 -8 55 -8 85 1 37 -1 48 -7 35 -11 -30 -11 -98 2
-134 9 -25 8 -47 -1 -92 -7 -32 -16 -59 -21 -59 -4 0 -13 25 -20 55 -9 42 -9
64 -1 94 13 42 15 106 3 135 -4 11 -7 -2 -7 -35 1 -30 -3 -67 -8 -84 -7 -28
-10 -24 -28 49 -19 74 -19 82 -4 142 9 35 15 85 15 111 -1 26 -4 37 -6 23 -8
-47 -35 -120 -44 -120 -11 0 -11 -1 2 85 19 128 7 231 -30 268 -10 9 -10 6 -2
-16 16 -42 14 -80 -15 -201 -34 -149 -33 -145 -47 -121 -7 12 -14 96 -18 210
-4 105 -12 201 -17 215 -9 22 -11 18 -11 -30 -1 -30 -6 -82 -11 -115 -15 -89
-13 -242 4 -299 14 -45 13 -51 -7 -92 -11 -24 -25 -44 -29 -44 -5 0 -5 24 -2
53 5 39 1 74 -15 132 -20 70 -21 93 -15 210 7 128 -4 227 -26 240 -5 3 -5 -9
1 -27 5 -18 9 -55 8 -83 l0 -50 -29 95 c-18 57 -30 117 -29 150 l0 55 14 -32
c20 -46 24 -41 12 16 -6 34 -6 55 2 67 9 16 10 14 11 -16 1 -19 7 -48 14 -65
13 -29 13 -28 9 20 -3 34 2 70 16 110 19 56 20 57 15 18 -6 -45 27 -166 48
-180 8 -4 9 0 4 13 -18 45 -19 120 -2 150 10 16 15 21 12 12 -3 -10 1 -39 9
-64 10 -33 11 -53 4 -66 -6 -12 -6 -18 0 -18 19 0 31 39 31 99 0 82 14 84 18
3 3 -79 17 -101 24 -39 3 24 17 61 32 83 l26 39 1 -50 1 -50 12 45 c13 44 66
150 76 150 3 0 20 -28 37 -63z m-1019 4 c9 -25 7 -32 -17 -55 -18 -17 -38 -26
-61 -26 -26 0 -42 -9 -72 -40 l-38 -41 -1 43 c0 24 -4 64 -8 91 -4 26 -4 47 1
47 4 0 8 -8 9 -17 0 -10 6 -36 13 -58 l13 -40 -5 58 c-5 58 9 79 23 35 l8 -23
4 23 c3 16 10 21 21 18 9 -3 33 -1 52 3 19 5 38 9 42 10 3 1 11 -12 16 -28z
m2051 17 c31 0 41 -5 46 -22 l8 -21 4 23 c2 12 9 22 15 22 7 0 9 -20 5 -57
l-5 -58 13 40 c7 22 14 48 14 58 1 9 4 17 9 17 6 0 -6 -158 -13 -168 -1 -1
-18 13 -38 33 -26 26 -44 35 -68 35 -22 0 -42 9 -60 26 -24 23 -26 30 -17 55
8 23 15 28 29 24 10 -4 36 -6 58 -7z m-2254 -120 c11 -68 21 -113 23 -100 2
14 10 22 23 22 23 0 23 -1 3 -48 -9 -20 -19 -50 -23 -67 -6 -24 -11 -7 -25 80
-10 61 -24 134 -31 164 -14 52 -12 71 4 71 4 0 16 -55 26 -122z m2409 114 c3
-5 -1 -33 -9 -63 -7 -30 -21 -103 -31 -164 -14 -85 -19 -103 -24 -80 -4 17
-14 47 -24 69 -20 47 -20 46 -1 46 9 0 19 -8 22 -17 8 -20 28 61 38 154 6 58
16 76 29 55z m-2423 -232 c19 -91 35 -155 37 -142 2 12 7 22 12 22 4 0 20 20
34 44 14 24 39 55 56 70 l31 25 47 -25 c26 -14 57 -23 70 -21 12 2 22 3 22 1
0 -2 -16 -24 -35 -49 -19 -25 -39 -62 -45 -83 -37 -134 39 -236 123 -164 15
14 19 14 30 -1 6 -9 32 -27 57 -41 42 -24 44 -27 41 -65 -1 -22 3 -49 9 -62
10 -17 10 -20 -2 -13 -17 10 -131 94 -138 101 -7 8 71 -35 100 -54 19 -13 17
-8 -9 20 -19 20 -50 44 -68 52 -45 22 -36 31 11 11 42 -17 39 -3 -4 19 -24 13
-32 13 -57 0 -25 -13 -84 -29 -175 -49 -38 -9 -35 -29 8 -49 62 -30 255 -160
349 -236 50 -39 135 -115 189 -168 54 -54 94 -88 88 -78 -5 11 -61 70 -124
130 -108 106 -246 217 -370 300 -32 21 -58 40 -58 42 0 18 274 -169 388 -265
48 -41 64 -51 42 -27 -52 57 -279 235 -355 280 -102 59 -61 54 47 -6 93 -52
155 -99 243 -185 83 -80 57 -42 -32 50 -55 55 -118 107 -171 139 -46 28 -79
53 -72 55 14 5 163 -95 234 -158 28 -24 42 -34 31 -21 -14 17 -16 25 -7 28 9
3 7 12 -8 30 -21 27 -25 59 -11 82 15 23 61 -11 54 -40 -5 -18 -3 -20 16 -14
17 5 33 -2 69 -32 26 -22 57 -46 69 -53 l22 -14 -21 -29 c-24 -34 -18 -45 18
-28 23 10 29 8 54 -19 36 -39 40 -64 18 -118 -34 -82 -15 -92 37 -21 l30 41
77 -83 c43 -46 78 -89 78 -96 0 -6 -10 -15 -22 -19 -18 -5 -19 -8 -8 -13 21
-8 60 -44 60 -54 0 -5 -8 -3 -17 4 -10 8 -2 -6 17 -30 70 -87 77 -99 35 -61
l-39 35 31 -40 c41 -54 53 -79 53 -109 0 -14 5 -26 10 -26 9 0 15 35 13 85 0
11 17 43 40 70 70 86 73 91 32 55 -46 -41 -22 -5 33 48 18 17 31 32 27 32 -3
0 2 12 12 27 l17 28 -27 -24 c-19 -18 -27 -20 -27 -10 0 8 35 52 78 98 l77 82
35 -45 c50 -65 66 -57 35 17 -24 58 -19 95 16 128 26 24 33 27 55 17 34 -16
40 -4 15 28 l-21 27 23 16 c13 9 44 33 70 54 35 30 51 37 68 32 19 -6 21 -4
16 14 -7 29 39 63 54 40 14 -23 10 -55 -11 -82 -22 -27 -26 -42 -10 -32 16 10
12 -6 -7 -29 -10 -12 2 -3 27 19 70 63 203 153 236 160 23 5 18 0 -21 -22 -93
-53 -145 -94 -225 -176 -44 -45 -80 -84 -80 -87 0 -3 33 25 73 63 39 37 97 85
127 106 77 53 190 113 204 108 6 -2 -9 -14 -34 -27 -79 -41 -311 -222 -385
-301 -32 -34 -26 -31 30 17 96 83 175 142 285 213 125 81 139 78 20 -4 -128
-88 -268 -207 -370 -311 -95 -97 -74 -86 38 21 141 133 390 316 506 372 46 22
46 40 -1 51 -115 27 -141 34 -167 47 -24 13 -32 13 -56 0 -43 -22 -46 -36 -4
-19 49 21 55 10 7 -14 -21 -11 -51 -35 -68 -53 -27 -29 -27 -31 -5 -16 29 19
108 62 100 54 -7 -7 -121 -91 -138 -101 -12 -7 -12 -4 -2 13 6 13 10 40 9 62
-3 38 -1 41 41 65 25 14 51 33 58 42 9 12 15 14 20 5 13 -21 60 -33 87 -23 76
29 72 181 -8 276 -33 39 -33 42 -4 37 12 -2 43 7 69 21 l47 25 31 -25 c17 -15
42 -46 56 -70 14 -24 30 -44 34 -44 5 0 10 -10 12 -22 2 -13 16 40 31 117 35
175 55 247 67 240 5 -3 3 -23 -5 -46 -8 -22 -28 -111 -45 -197 -17 -86 -44
-200 -60 -252 -17 -51 -30 -106 -30 -122 0 -23 -7 -30 -46 -47 -60 -27 -227
-136 -334 -219 -208 -161 -636 -626 -710 -772 -30 -59 -19 -74 14 -17 52 88
146 201 331 399 268 285 488 466 700 574 l80 41 6 54 c3 30 24 117 46 194 22
77 51 193 64 257 13 64 27 114 31 112 14 -9 9 -42 -37 -227 -25 -100 -53 -230
-63 -290 l-18 -107 -65 -39 c-101 -58 -344 -226 -439 -301 -88 -70 -244 -226
-341 -340 -80 -93 -274 -342 -306 -392 -35 -56 -35 -55 -41 -39 -7 19 -173
239 -281 371 -126 154 -300 330 -410 413 -120 91 -333 238 -420 288 l-65 39
-18 107 c-10 60 -39 194 -65 300 -29 120 -43 198 -38 210 6 14 10 8 17 -27 25
-126 64 -285 90 -370 16 -52 32 -122 36 -154 l7 -59 80 -41 c189 -97 368 -236
584 -455 213 -217 355 -378 422 -480 53 -83 78 -97 40 -24 -72 143 -486 596
-696 763 -103 81 -275 196 -342 227 -41 19 -53 30 -53 47 0 13 -13 67 -30 122
-16 54 -44 170 -60 256 -17 86 -37 175 -44 196 -17 46 -7 68 10 25 7 -15 27
-102 45 -193z m-546 200 c-27 -12 -43 -12 -25 0 8 5 22 9 30 9 10 0 8 -3 -5
-9z m3540 -11 c22 -10 29 -16 15 -13 -38 10 -87 32 -70 32 8 0 33 -8 55 -19z
m-3595 -9 c-8 -5 -19 -10 -25 -10 -5 0 -3 5 5 10 8 5 20 10 25 10 6 0 3 -5 -5
-10z m215 -14 c53 -14 100 -35 93 -41 -2 -3 -26 2 -53 10 -75 23 -87 17 -17
-9 56 -21 142 -70 142 -81 0 -2 -28 9 -62 25 -91 41 -136 47 -53 6 61 -29 149
-86 133 -86 -2 0 -18 6 -34 14 -50 24 -82 29 -39 5 50 -27 105 -78 105 -98 0
-11 -5 -9 -16 7 -13 19 -63 52 -79 52 -3 0 10 -14 30 -31 46 -41 46 -82 1 -87
-65 -8 -100 26 -146 140 -25 64 -85 127 -147 154 -37 16 -38 17 -13 24 40 12
101 11 155 -4z m3325 5 c24 -7 24 -8 -15 -25 -64 -27 -121 -91 -152 -169 -34
-87 -79 -129 -131 -125 -32 3 -37 7 -40 29 -2 21 6 34 35 58 21 17 34 31 30
31 -18 0 -67 -31 -81 -52 -11 -16 -16 -18 -16 -7 0 19 46 63 97 95 47 29 36
31 -17 4 -22 -11 -43 -20 -47 -20 -15 0 65 54 122 81 33 16 51 29 40 29 -11 0
-49 -14 -85 -30 -50 -23 -59 -25 -40 -10 32 26 85 54 133 70 21 6 36 14 34 17
-5 4 -63 -9 -105 -24 -15 -5 -15 -4 -2 10 30 32 179 56 240 38z m-3555 -65 c0
-13 -3 -22 -7 -19 -5 2 -8 13 -8 24 0 10 3 19 8 19 4 0 7 -11 7 -24z m123 -35
c28 -39 28 -41 -6 -41 -19 0 -40 12 -66 39 -35 36 -36 40 -20 49 24 13 61 -6
92 -47z m3480 21 c-30 -38 -65 -61 -90 -62 -33 0 -34 4 -7 38 33 42 69 62 91
51 16 -9 17 -13 6 -27z m42 19 c0 -11 -3 -22 -7 -24 -5 -3 -8 6 -8 19 0 13 3
24 8 24 4 0 7 -9 7 -19z m-50 -71 c-19 -27 -40 -40 -40 -25 0 6 52 54 58 55 2
0 -6 -13 -18 -30z m-3520 -23 c0 -15 -23 -1 -39 23 l-16 24 27 -19 c15 -11 28
-24 28 -28z m690 13 c9 -6 10 -10 3 -10 -6 0 -26 -12 -44 -27 -18 -16 -30 -23
-26 -17 3 6 11 23 16 38 11 27 26 32 51 16z m2154 -26 l17 -37 -31 27 c-17 14
-37 26 -43 26 -15 0 14 20 29 20 6 0 18 -16 28 -36z m-2910 -5 c22 -6 53 -24
69 -40 16 -17 32 -28 34 -25 6 6 -17 49 -31 58 -6 4 10 8 36 8 l46 0 37 -67
c20 -38 49 -81 63 -96 l27 -29 -30 8 c-16 3 -45 13 -62 20 -53 21 -38 5 20
-21 28 -14 69 -25 90 -25 26 0 36 -4 31 -11 -11 -19 -103 -2 -167 29 -42 21
-53 24 -41 11 24 -27 97 -60 151 -68 l48 -8 -39 -8 c-48 -10 -91 4 -166 55
-65 44 -134 80 -152 80 -7 0 11 -13 39 -29 29 -16 70 -42 90 -59 70 -55 113
-74 172 -75 41 0 49 -2 31 -8 -78 -22 -127 -8 -263 78 -49 31 -105 62 -125 69
-80 28 -187 11 -239 -38 l-23 -21 0 24 c0 36 34 84 70 99 29 12 39 12 79 -3
59 -21 64 -14 9 14 l-43 23 40 12 c44 13 81 9 106 -12 16 -15 39 -19 39 -7 0
12 -33 43 -47 43 -19 0 -16 18 5 23 31 8 56 7 96 -4z m3704 5 c24 -7 30 -24 9
-24 -17 0 -53 -38 -44 -46 4 -4 17 0 29 8 35 23 69 27 113 14 l40 -12 -38 -18
c-35 -17 -66 -45 -36 -33 63 26 89 29 118 17 34 -14 71 -66 71 -100 l0 -22
-30 26 c-51 43 -142 58 -220 36 -19 -5 -82 -39 -140 -75 -58 -36 -123 -70
-145 -76 -43 -12 -116 -6 -143 11 -14 9 -12 10 8 4 69 -19 142 4 225 71 22 18
63 44 90 59 28 15 39 24 25 20 -27 -7 -70 -30 -165 -88 -72 -44 -94 -51 -143
-40 l-37 7 48 8 c54 8 127 41 151 68 12 14 3 11 -39 -10 -64 -32 -136 -46
-168 -32 -18 8 -14 10 22 11 40 2 147 40 137 49 -2 2 -25 -3 -50 -11 -26 -9
-49 -16 -52 -16 -3 0 10 19 29 43 19 23 46 66 61 95 25 50 28 52 67 52 l40 0
-17 -30 c-24 -39 -11 -49 18 -16 36 41 112 64 166 50z m-3189 -186 c9 -42 9
-67 1 -98 -12 -46 -6 -67 9 -29 7 18 10 4 11 -61 0 -47 4 -91 9 -98 5 -8 7 8
5 40 -4 59 -4 59 41 -84 29 -92 42 -112 32 -52 -4 25 -2 34 6 31 8 -3 12 -29
11 -82 -2 -73 -1 -77 11 -49 l13 29 1 -35 c0 -19 -6 -53 -14 -75 l-14 -40 20
24 c10 13 19 31 19 42 0 10 5 21 10 24 6 3 10 -3 10 -14 0 -32 -19 -74 -48
-105 l-27 -30 25 15 c14 9 36 33 50 54 18 27 26 33 28 21 7 -36 -60 -113 -113
-130 -19 -5 -20 -1 -20 68 0 66 -4 81 -39 147 -105 196 -108 206 -119 294 -13
103 0 199 34 246 26 37 31 31 48 -53z m2644 29 c19 -37 22 -56 21 -157 -1
-133 -9 -160 -89 -300 -61 -108 -80 -171 -71 -236 6 -43 5 -45 -17 -38 -54 17
-118 87 -116 130 0 19 0 19 12 0 24 -38 59 -76 70 -76 6 0 1 10 -11 23 -33 35
-60 129 -32 112 6 -3 10 -14 10 -24 0 -11 9 -29 20 -42 l20 -24 -15 37 c-8 21
-15 54 -14 75 l1 38 13 -29 c12 -28 13 -24 11 49 -1 51 3 79 11 82 8 3 10 -9
7 -39 -4 -33 3 -21 27 52 44 133 50 145 45 86 -2 -30 -1 -43 5 -35 5 8 9 52 9
99 1 80 2 83 15 55 16 -36 19 -14 4 39 -8 27 -7 52 1 90 23 102 25 103 63 33z
m-2077 -42 c8 -31 24 -63 34 -73 17 -15 17 -20 4 -51 l-14 -33 -32 20 c-43 27
-45 38 -11 51 27 11 26 11 -9 6 -37 -6 -37 -5 -48 37 -6 24 -13 49 -16 57 -4
13 11 30 29 31 4 0 7 -10 8 -22 1 -22 1 -22 8 2 7 25 8 24 15 -7 4 -18 12 -36
18 -39 6 -4 8 2 3 17 -15 53 -16 59 -11 59 3 0 13 -25 22 -55z m1465 12 c-5
-20 -5 -35 -1 -32 4 2 11 19 15 37 7 33 7 33 15 8 5 -15 8 -19 9 -8 1 21 13
29 29 19 9 -5 10 -16 3 -37 -5 -16 -12 -42 -15 -57 -6 -26 -9 -27 -44 -22 -35
5 -36 4 -9 -6 34 -13 32 -24 -10 -50 l-32 -20 -16 31 c-16 31 -16 33 4 51 11
11 25 38 31 62 15 58 20 71 25 66 2 -3 0 -21 -4 -42z m-1589 -68 c4 -42 -19
-47 -41 -8 -13 24 -13 29 4 55 17 27 18 27 26 8 4 -12 9 -36 11 -55z m1748 16
c0 -20 -36 -59 -47 -52 -7 4 -7 23 0 58 l10 52 19 -23 c10 -12 18 -28 18 -35z
m-1285 -45 c12 -44 15 -82 11 -119 -6 -48 -5 -53 9 -41 14 12 15 10 10 -13 -4
-14 -2 -50 4 -78 10 -47 10 -55 -6 -71 -17 -17 -18 -15 -19 45 -1 38 -12 91
-28 137 -34 96 -43 173 -26 206 17 30 22 23 45 -66z m822 -9 c-4 -31 -18 -90
-33 -131 -16 -46 -27 -99 -28 -137 -1 -60 -2 -62 -19 -45 -15 16 -16 25 -6 75
5 32 7 68 3 80 -6 19 -5 20 10 8 15 -13 16 -9 10 41 -5 43 -1 73 16 132 22 72
24 75 38 55 11 -16 13 -36 9 -78z m-2282 52 c7 -40 54 -147 61 -140 2 2 -5 24
-16 48 -30 68 -23 81 9 17 76 -150 234 -267 422 -313 38 -9 69 -21 69 -26 0
-13 -12 -11 -97 16 -126 40 -99 21 57 -40 74 -29 31 -24 -65 7 -186 61 -344
185 -410 323 -37 77 -58 145 -45 145 4 0 11 -17 15 -37z m3710 15 c-70 -231
-237 -384 -501 -458 -42 -12 -78 -20 -80 -17 -2 2 31 16 74 31 66 23 158 67
111 52 -9 -2 -47 -14 -84 -25 -75 -23 -85 -25 -85 -12 0 5 32 17 72 26 202 50
381 196 441 360 14 39 17 43 12 16 -3 -19 -16 -60 -30 -90 -14 -32 -18 -47 -9
-36 22 27 52 97 60 140 3 19 11 35 16 35 5 0 6 -10 3 -22z m-3688 -20 c-3 -8
-6 -5 -6 6 -1 11 2 17 5 13 3 -3 4 -12 1 -19z m1240 -18 c-4 -16 -25 -58 -47
-93 -31 -50 -40 -74 -40 -108 0 -33 -3 -40 -12 -31 -17 17 -11 83 12 137 11
26 20 55 20 65 0 10 15 27 33 38 42 26 40 27 34 -8z m1201 10 c22 -10 32 -21
32 -36 0 -12 9 -43 20 -69 21 -49 27 -135 10 -135 -5 0 -10 17 -10 38 0 26
-10 53 -36 90 -34 50 -72 138 -56 130 4 -3 22 -11 40 -18z m-2353 -31 c20 -12
34 -23 32 -25 -8 -8 -66 18 -71 32 -7 18 -4 18 39 -7z m3515 10 c0 -11 -69
-43 -77 -36 -4 5 56 45 70 46 4 1 7 -4 7 -10z m-3669 -30 c22 -18 22 -20 4
-15 -61 14 -84 16 -106 7 -22 -9 -20 -10 16 -11 36 0 125 -32 125 -44 0 -3
-19 1 -41 9 -23 8 -53 15 -68 14 -18 0 -8 -7 34 -21 75 -25 90 -38 45 -39
l-35 -1 30 -7 c36 -9 91 -37 100 -51 3 -5 -6 -5 -24 1 -17 6 -38 9 -48 7 -11
-3 2 -11 34 -22 58 -19 77 -36 41 -36 -17 0 -12 -6 22 -22 l45 -21 -39 -10
-38 -10 -89 92 c-72 75 -102 98 -160 125 l-72 33 54 21 c72 28 139 28 170 1z
m3959 -6 c38 -17 42 -22 25 -28 -87 -30 -126 -56 -211 -142 -90 -91 -107 -101
-149 -83 -18 7 -14 10 25 29 37 17 41 21 20 21 -24 1 -24 1 -5 16 11 8 38 19
60 26 22 6 35 13 28 15 -6 2 -28 0 -48 -6 -21 -5 -33 -6 -29 0 8 13 64 41 99
50 l30 7 -34 1 c-46 1 -31 14 44 39 42 14 52 21 34 21 -15 1 -45 -6 -68 -14
-22 -8 -41 -12 -41 -9 0 12 89 44 125 44 36 1 38 2 16 11 -22 9 -45 7 -106 -7
-17 -4 -17 -2 5 17 21 17 34 20 80 17 30 -3 75 -14 100 -25z m-3532 -70 c-12
-21 -28 -46 -37 -56 -12 -15 -12 -17 0 -12 8 3 24 20 37 38 13 18 29 41 37 52
13 19 14 17 15 -21 0 -47 -22 -73 -83 -99 l-38 -16 7 48 c10 73 29 103 66 103
16 0 15 -4 -4 -37z m916 -17 c-9 -43 -18 -50 -38 -27 -16 18 -16 21 -1 51 13
26 19 29 31 19 10 -8 13 -22 8 -43z m1131 23 c15 -29 15 -32 -1 -50 -9 -10
-20 -19 -24 -19 -13 0 -20 73 -8 87 14 18 15 17 33 -18z m912 -73 c7 -3 -4 19
-23 49 -29 46 -32 55 -17 55 38 0 57 -29 67 -103 l7 -48 -38 16 c-60 25 -83
52 -83 99 l0 40 38 -52 c20 -28 42 -53 49 -56z m-3041 77 c-2 -10 -10 -44 -16
-75 -6 -32 -16 -58 -21 -58 -16 0 -10 56 11 104 21 45 36 62 26 29z m3114 -29
c11 -26 20 -61 20 -78 -1 -28 -2 -29 -14 -13 -8 10 -17 39 -21 64 -4 25 -9 52
-12 59 -3 8 -3 14 0 14 4 0 15 -21 27 -46z m-2014 -72 c19 -16 51 -89 42 -97
-1 -2 -25 17 -52 41 -40 37 -46 47 -36 59 16 19 20 18 46 -3z m934 3 c10 -12
4 -22 -36 -59 -27 -24 -51 -43 -52 -41 -9 8 23 81 42 97 26 21 30 22 46 3z
m-1894 -24 c-19 -21 -94 -45 -122 -39 -11 3 6 12 43 22 35 10 68 25 74 33 7 7
14 11 17 8 3 -3 -2 -13 -12 -24z m2818 10 c3 -4 34 -16 68 -26 72 -20 62 -33
-11 -15 -44 10 -101 50 -73 50 6 0 13 -4 16 -9z m-3054 -110 c0 -5 -18 -11
-39 -15 -65 -10 -57 -25 11 -20 60 5 62 4 38 -10 -25 -15 -24 -15 25 -16 28 0
57 -5 65 -10 13 -8 13 -10 -2 -10 -9 0 -19 -4 -22 -8 -3 -5 16 -7 43 -4 30 2
51 0 55 -7 4 -6 0 -11 -11 -11 -10 0 -27 -8 -38 -17 -18 -14 -18 -15 -2 -9 10
3 37 8 60 11 36 5 40 4 23 -7 -10 -7 -28 -21 -40 -30 -20 -17 -19 -17 18 -2
21 8 40 14 41 12 2 -2 -14 -18 -36 -36 -58 -49 -64 -47 -227 85 -19 15 -56 34
-84 44 -50 17 -50 17 -27 30 59 34 149 52 149 30z m3369 -2 c21 -6 48 -19 62
-30 22 -17 23 -19 4 -19 -35 -1 -98 -35 -155 -84 -56 -49 -119 -86 -142 -86
-13 1 -97 70 -84 70 3 0 23 -7 44 -15 36 -14 36 -14 16 3 -12 9 -30 22 -40 29
-18 11 -18 12 1 12 11 1 35 -3 53 -9 29 -8 32 -7 22 5 -7 8 -21 15 -32 15 -12
0 -16 4 -12 11 4 7 27 10 63 6 51 -4 53 -4 27 8 l-28 12 23 6 c13 4 39 7 58 7
33 0 34 1 15 16 -18 14 -14 15 46 10 59 -4 63 -3 40 9 -14 8 -35 14 -47 15
-13 0 -23 5 -23 10 0 13 44 13 89 -1z m-2749 -163 c43 -60 115 -114 217 -165
45 -23 85 -41 88 -41 17 0 177 -87 221 -120 29 -22 54 -37 57 -34 5 5 121
-126 193 -219 19 -25 38 -64 43 -88 7 -33 9 -37 10 -16 1 16 5 26 11 22 16
-10 11 -66 -10 -112 -23 -51 -18 -56 10 -10 21 34 27 30 9 -6 -24 -47 -51 -67
-91 -67 -73 0 -105 74 -53 125 13 14 29 25 35 25 24 0 50 -22 50 -42 0 -17 3
-19 12 -10 9 9 9 18 0 37 -7 14 -12 36 -13 48 0 21 -1 21 -9 2 -6 -15 -9 -8
-9 28 -1 26 -5 47 -11 47 -5 0 -10 6 -10 13 0 7 -7 22 -15 33 -14 18 -14 17
-5 -9 5 -16 10 -45 9 -65 l-1 -37 -9 43 c-18 91 -96 195 -212 280 -30 23 -135
81 -233 129 -137 67 -190 99 -235 140 -62 58 -119 156 -118 202 0 18 6 8 18
-30 10 -31 33 -78 51 -103z m2080 48 c-50 -103 -121 -158 -334 -263 -120 -58
-205 -107 -251 -144 -99 -79 -164 -168 -184 -254 l-9 -38 -1 32 c-1 17 3 43 9
57 15 41 3 30 -20 -16 -11 -23 -20 -58 -21 -77 0 -29 -2 -32 -9 -16 -8 19 -9
19 -9 -2 -1 -12 -6 -34 -13 -48 -9 -19 -9 -28 0 -37 9 -9 12 -7 12 10 0 20 26
42 50 42 23 0 60 -49 60 -80 0 -88 -121 -95 -165 -10 -21 41 -18 51 4 14 31
-50 40 -48 14 3 -23 47 -31 107 -14 118 5 3 12 -7 14 -22 3 -23 4 -22 6 9 1
42 37 93 184 263 146 170 276 297 361 355 43 29 75 47 71 40 -5 -8 -3 -11 6
-8 8 3 13 10 12 16 -2 6 4 9 12 6 8 -3 19 3 27 15 7 12 17 21 22 21 17 0 -29
-43 -88 -82 -61 -39 -68 -50 -15 -22 17 8 33 13 37 10 3 -3 -34 -24 -81 -46
-48 -22 -87 -42 -87 -44 0 -4 127 47 161 64 43 24 111 95 135 142 13 26 29 48
34 48 15 0 12 -11 -20 -66 -42 -74 -101 -121 -234 -186 -64 -32 -116 -60 -116
-62 0 -7 206 90 247 115 51 32 130 125 149 176 21 58 34 75 34 45 0 -25 -31
-91 -64 -135 -39 -53 -139 -119 -301 -197 -94 -46 -177 -93 -200 -115 l-40
-37 52 36 c28 20 96 57 150 82 195 91 223 106 282 150 70 52 136 145 147 206
6 32 9 37 12 19 2 -13 -10 -51 -28 -87z m-2081 45 c25 -77 106 -165 194 -211
70 -35 187 -87 187 -82 0 3 -47 27 -104 55 -120 58 -185 110 -226 183 -32 55
-35 66 -20 66 5 0 21 -22 34 -48 39 -76 135 -155 216 -176 14 -4 -1 7 -34 24
-32 17 -56 34 -53 36 3 3 19 -2 37 -11 18 -9 34 -14 38 -11 3 3 1 6 -4 6 -5 0
-24 9 -43 21 -27 17 -31 23 -20 31 11 7 9 8 -7 4 -14 -4 -29 3 -49 24 -16 16
-25 30 -20 30 4 0 13 -7 19 -15 6 -8 21 -17 33 -19 46 -9 181 -114 290 -225
115 -118 148 -163 71 -96 -24 20 -108 69 -188 107 -169 82 -234 122 -289 177
-44 44 -91 128 -91 163 0 29 14 13 29 -33z m709 26 c7 -14 12 -34 12 -43 0
-13 -5 -11 -26 10 -17 16 -24 32 -21 42 9 23 22 20 35 -9z m658 11 c6 -15 -24
-65 -38 -66 -12 0 -10 26 4 55 13 28 26 32 34 11z m-522 -121 c33 -60 45 -102
15 -55 -24 38 -52 100 -45 100 2 0 16 -20 30 -45z m373 13 c-16 -39 -57 -106
-57 -95 0 11 59 127 65 127 3 0 -1 -15 -8 -32z m-397 -57 c0 -2 -11 6 -24 18
-16 15 -22 29 -18 43 4 18 8 15 23 -18 11 -20 19 -40 19 -43z m427 22 c-27
-30 -30 -25 -9 20 13 31 18 34 23 20 4 -11 -1 -26 -14 -40z m-1482 7 c4 -6 -5
-7 -24 -4 -16 3 -46 1 -66 -6 -37 -12 -105 -72 -105 -92 0 -6 9 1 21 16 36 45
114 73 154 55 18 -9 18 -9 -2 -5 -33 6 -28 -8 7 -21 l31 -12 -16 -36 c-8 -21
-12 -41 -9 -46 8 -14 62 -11 94 6 25 13 29 13 34 -1 5 -12 1 -14 -17 -9 -19 6
-18 3 8 -19 35 -29 31 -32 -18 -11 -23 10 -66 15 -119 14 -51 -1 -73 -4 -58
-8 24 -7 24 -7 -8 -14 -46 -9 -86 -51 -78 -83 15 -58 -46 0 -64 62 -22 73 27
161 112 203 45 22 112 28 123 11z m419 -49 c-2 -3 -19 10 -37 28 l-32 34 37
-29 c20 -15 35 -30 32 -33z m2229 30 c99 -64 131 -170 73 -245 -31 -42 -49
-47 -40 -12 7 30 -29 71 -70 82 -44 11 -134 -6 -191 -36 -36 -19 -52 -23 -48
-14 10 28 83 55 167 63 l81 8 -83 2 c-54 1 -95 -4 -119 -14 -49 -21 -53 -18
-18 11 26 22 27 25 8 19 -18 -5 -22 -3 -17 9 5 14 9 14 34 1 32 -17 86 -20 94
-6 3 5 -1 25 -9 45 l-16 37 33 14 c30 13 31 14 9 15 -13 0 -21 3 -18 7 12 11
86 4 116 -12 16 -8 39 -27 51 -42 l22 -28 -19 34 c-25 47 -95 84 -146 78 -21
-3 -35 -1 -31 4 12 21 90 9 137 -20z m-523 -6 c-13 -14 -28 -25 -34 -25 -6 0
3 11 19 25 39 31 45 32 15 0z m-761 -111 c-17 -21 -33 -2 -25 32 l7 27 15 -22
c13 -18 13 -25 3 -37z m-1091 -146 c17 -38 29 -68 27 -68 -16 0 -106 215 -104
249 0 9 11 -13 23 -49 13 -36 37 -95 54 -132z m-17 149 c-8 -8 -11 -5 -11 9 0
27 14 41 18 19 2 -9 -1 -22 -7 -28z m915 28 c4 -8 3 -23 0 -32 -6 -15 -8 -15
-22 -2 -8 9 -12 23 -8 32 8 21 23 22 30 2z m1094 -16 c0 -11 -4 -17 -10 -14
-5 3 -10 15 -10 26 0 11 5 17 10 14 6 -3 10 -15 10 -26z m34 -41 c-18 -56 -91
-208 -99 -208 -3 0 8 26 23 58 16 31 42 94 58 139 31 89 47 98 18 11z m-1977
27 c12 -8 45 -27 75 -43 l53 -27 -38 -3 c-34 -3 -147 22 -147 33 0 10 24 55
29 55 4 0 16 -7 28 -15z m1911 -10 c7 -14 12 -28 12 -30 0 -9 -106 -35 -144
-35 l-41 0 75 44 c41 25 78 45 81 45 3 1 11 -10 17 -24z m-1034 -41 c3 -8 2
-12 -4 -9 -6 3 -10 10 -10 16 0 14 7 11 14 -7z m117 -7 c-10 -9 -11 -8 -5 6 3
10 9 15 12 12 3 -3 0 -11 -7 -18z m-1223 -14 c18 -9 37 -24 43 -34 8 -17 6
-16 -28 3 -20 13 -67 30 -103 40 l-65 18 60 -6 c33 -3 75 -13 93 -21z m192
-198 c17 -27 47 -68 66 -90 25 -29 20 -17 -19 40 -51 75 -117 195 -117 212 0
4 13 -14 28 -42 46 -83 123 -198 128 -192 3 3 -7 25 -23 49 -16 24 -33 50 -38
58 -15 28 10 -3 57 -70 159 -226 508 -451 815 -525 68 -17 76 -17 145 0 110
26 184 53 282 102 239 120 419 262 533 421 25 34 47 62 50 62 2 0 -5 -14 -17
-31 -12 -16 -20 -32 -17 -35 7 -7 58 68 107 158 22 40 40 70 40 65 0 -17 -73
-150 -125 -229 -31 -46 -44 -69 -30 -53 43 49 85 113 136 204 27 47 49 83 49
79 0 -4 -27 -62 -59 -130 -118 -245 -310 -429 -586 -564 -122 -59 -192 -82
-310 -101 -124 -20 -127 -20 -250 0 -120 19 -170 35 -292 92 -223 105 -429
276 -535 445 -34 54 -138 264 -138 278 0 4 20 -29 44 -73 25 -44 58 -102 76
-130z m100 180 c36 0 71 2 79 5 30 11 18 -19 -29 -72 -27 -31 -54 -67 -59 -80
-9 -21 -10 -22 -10 -2 -1 11 15 43 34 70 l35 49 -67 8 c-40 4 -74 14 -83 23
-14 15 -13 15 10 8 14 -5 54 -9 90 -9z m1754 -3 c33 3 70 9 81 13 18 7 19 6 5
-8 -9 -10 -42 -20 -83 -24 l-68 -8 30 -40 c16 -22 32 -54 36 -70 l6 -30 -14
30 c-8 17 -22 36 -31 44 -9 8 -30 31 -47 52 -33 42 -32 66 3 48 12 -6 47 -9
82 -7z m-930 -72 c6 -8 -4 -2 -22 14 -18 17 -32 36 -32 44 0 13 20 -8 54 -58z
m150 62 c3 -5 -11 -24 -31 -43 l-36 -34 29 42 c32 48 31 46 38 35z m-785 -22
c24 -11 71 -37 104 -57 57 -35 59 -37 36 -45 -110 -42 -319 -50 -305 -12 9 23
100 133 111 133 6 0 30 -8 54 -19z m1461 -26 c19 -25 44 -57 54 -70 11 -13 17
-27 13 -30 -23 -23 -206 -10 -295 20 l-35 12 60 37 c61 37 140 75 158 76 6 0
26 -20 45 -45z m-845 -34 c10 -11 16 -20 13 -20 -3 0 -13 9 -23 20 -10 11 -16
20 -13 20 3 0 13 -9 23 -20z m75 -40 c0 -5 -5 -10 -11 -10 -5 0 -7 5 -4 10 3
6 8 10 11 10 2 0 4 -4 4 -10z m-585 -84 c-25 -35 -57 -89 -71 -120 -25 -55
-37 -66 -49 -46 -8 13 35 89 83 149 34 42 35 44 12 37 -69 -19 -139 -27 -192
-21 -90 11 -76 20 30 21 68 1 115 8 157 22 33 11 63 20 67 21 4 1 -13 -28 -37
-63z m148 7 c31 -31 57 -63 57 -70 0 -32 -124 -90 -233 -109 l-38 -6 16 38
c18 44 123 204 134 204 4 0 33 -26 64 -57z m981 -25 c61 -91 93 -158 75 -158
-42 0 -179 46 -221 74 l-49 33 28 34 c32 39 95 98 105 99 3 0 31 -37 62 -82z
m64 56 c34 -10 94 -18 149 -18 100 -1 114 -11 29 -21 -50 -7 -157 5 -201 21
-17 6 -16 3 7 -22 26 -28 98 -143 98 -155 0 -4 -7 -9 -14 -12 -11 -4 -23 11
-40 49 -14 31 -46 85 -71 121 -26 36 -39 63 -30 59 9 -3 41 -13 73 -22z m-942
-179 c21 -52 17 -80 -16 -113 -22 -23 -30 -40 -30 -66 0 -25 -4 -36 -15 -36
-18 0 -20 55 -4 131 12 56 36 119 45 119 3 0 12 -16 20 -35z m708 -66 c21 -89
21 -149 1 -149 -11 0 -15 11 -15 36 0 26 -8 43 -31 67 -27 27 -30 35 -25 70 4
22 12 49 18 60 10 20 11 20 24 3 7 -10 20 -49 28 -87z m-781 49 c-9 -24 -18
-76 -21 -115 -2 -40 -9 -73 -13 -73 -12 0 -11 107 1 148 8 30 7 33 -8 27 -49
-19 -165 -46 -185 -43 -12 2 13 12 58 22 79 18 148 46 160 66 16 26 21 5 8
-32z m821 18 c19 -13 66 -31 103 -41 37 -9 77 -21 88 -25 62 -26 -104 7 -177
35 -15 6 -16 3 -8 -27 12 -41 13 -148 1 -148 -4 0 -11 35 -13 78 -3 42 -13 94
-21 115 -9 20 -14 37 -12 37 2 0 20 -11 39 -24z m-284 -180 c0 -23 -69 -152
-92 -172 l-22 -19 19 30 c35 54 64 117 71 151 6 32 24 39 24 10z m-256 -10 c9
-35 41 -106 67 -146 l23 -35 -23 20 c-24 20 -91 148 -91 172 0 22 18 14 24
-11z m95 -75 l24 -25 21 25 c12 13 31 38 44 54 22 29 23 29 17 5 -10 -39 -76
-170 -86 -170 -9 0 -73 130 -84 170 -6 24 -5 24 17 -5 12 -16 34 -41 47 -54z"/>
<path d="M4895 2649 c-4 -6 -5 -12 -2 -15 2 -3 7 2 10 11 7 17 1 20 -8 4z"/>
<path d="M1360 2640 c0 -5 5 -10 11 -10 5 0 7 5 4 10 -3 6 -8 10 -11 10 -2 0
-4 -4 -4 -10z"/>
<path d="M3266 3843 c-6 -14 -5 -15 5 -6 7 7 10 15 7 18 -3 3 -9 -2 -12 -12z"/>
<path d="M2795 3506 c-17 -12 -13 -13 31 -9 36 3 59 -1 88 -16 49 -25 61 -18
23 15 -32 28 -110 33 -142 10z"/>
<path d="M2340 3370 c0 -11 2 -20 4 -20 2 0 6 9 9 20 3 11 1 20 -4 20 -5 0 -9
-9 -9 -20z"/>
<path d="M2332 3315 c0 -16 2 -22 5 -12 2 9 2 23 0 30 -3 6 -5 -1 -5 -18z"/>
<path d="M3507 3665 c-78 -23 -116 -49 -157 -105 l-18 -26 35 4 c21 3 67 -6
118 -23 84 -28 84 -28 132 -10 26 9 63 26 81 36 32 19 32 19 21 -2 -6 -11 -26
-27 -45 -35 -43 -18 -43 -24 2 -24 29 0 44 8 80 45 24 25 44 48 44 52 0 3 -13
3 -29 1 -28 -4 -29 -4 -14 19 9 13 24 28 35 34 25 13 16 24 -22 27 -17 1 -48
9 -67 17 -49 21 -104 18 -196 -10z m213 -16 l54 -12 -42 -37 c-22 -20 -70 -47
-104 -60 -55 -20 -68 -21 -103 -11 -82 24 -120 32 -137 28 -32 -9 -19 10 27
41 28 19 75 37 123 47 42 9 82 18 87 20 6 2 17 2 25 0 8 -2 40 -9 70 -16z"/>
<path d="M3323 3496 c-38 -33 -24 -42 21 -15 29 17 47 20 88 17 46 -5 49 -4
33 8 -32 23 -110 18 -142 -10z"/>
<path d="M3932 3380 c0 -14 3 -34 8 -45 l9 -20 -1 20 c0 11 -4 31 -8 45 l-8
25 0 -25z"/>
<path d="M3922 3315 c0 -16 2 -22 5 -12 2 9 2 23 0 30 -3 6 -5 -1 -5 -18z"/>
<path d="M3891 3314 c0 -11 3 -14 6 -6 3 7 2 16 -1 19 -3 4 -6 -2 -5 -13z"/>
<path d="M2552 2210 c0 -14 2 -19 5 -12 2 6 2 18 0 25 -3 6 -5 1 -5 -13z"/>
<path d="M3051 2482 c-27 -15 -58 -25 -80 -24 -26 1 -32 -1 -21 -8 23 -15 69
-12 118 7 38 14 51 15 96 4 83 -20 123 -24 143 -12 15 8 12 10 -18 9 -23 -1
-55 9 -84 25 -58 33 -97 33 -154 -1z"/>
<path d="M2835 2046 c-5 -19 -3 -47 5 -75 7 -25 16 -62 19 -81 5 -24 9 -30 13
-19 4 9 2 36 -4 60 -5 24 -13 67 -17 94 -7 47 -8 49 -16 21z"/>
<path d="M3410 2040 c0 -19 -7 -60 -14 -90 -7 -31 -10 -64 -5 -75 l8 -20 0 20
c1 11 9 50 18 87 13 51 14 71 6 90 -11 22 -12 21 -13 -12z"/>
<path d="M3015 2037 c-12 -46 1 -104 42 -184 47 -92 55 -73 12 33 -17 43 -35
102 -38 129 -7 46 -8 48 -16 22z"/>
<path d="M3230 2025 c0 -20 -16 -77 -35 -127 -46 -119 -41 -141 9 -42 42 80
61 184 37 198 -7 5 -11 -5 -11 -29z"/>
<path d="M2970 1172 c6 -13 14 -21 18 -18 3 4 -2 14 -12 24 -18 16 -18 16 -6
-6z"/>
<path d="M3183 988 c-31 -35 -40 -56 -14 -33 21 18 46 55 38 55 -2 0 -13 -10
-24 -22z"/>
<path d="M2430 1240 c8 -5 20 -10 25 -10 6 0 3 5 -5 10 -8 5 -19 10 -25 10 -5
0 -3 -5 5 -10z"/>
<path d="M2500 1166 c0 -3 9 -10 20 -16 11 -6 20 -8 20 -6 0 3 -9 10 -20 16
-11 6 -20 8 -20 6z"/>
<path d="M3995 880 c-16 -23 -69 -80 -119 -128 -93 -88 -71 -81 28 9 57 52
132 146 124 155 -3 2 -18 -14 -33 -36z"/>
<path d="M2250 882 c0 -16 144 -161 190 -191 l35 -23 -30 27 c-83 76 -115 107
-153 152 -23 26 -42 42 -42 35z"/>
</g>
</svg>
